<?xml version="1.0" encoding="UTF-8" standalone="no"?>
<!DOCTYPE svg PUBLIC "-//W3C//DTD SVG 1.1//EN" "http://www.w3.org/Graphics/SVG/1.1/DTD/svg11.dtd">
<svg xmlns="http://www.w3.org/2000/svg" version="1.1" viewBox="0.00 0.00 717.00 717.00">
<g stroke-width="2.00" fill="none" stroke-linecap="butt">
<path stroke="#6c5f52" vector-effect="non-scaling-stroke" d="
  M 564.33 310.22
  Q 562.98 311.53 562.62 314.94
  Q 558.75 350.74 554.36 388.04
  Q 554.18 389.57 555.71 389.52
  L 563.03 389.28"
/>
<path stroke="#0b385b" vector-effect="non-scaling-stroke" d="
  M 563.03 389.28
  C 569.85 394.74 574.64 390.53 581.62 392.17
  C 584.64 392.88 586.55 392.48 589.39 392.21
  Q 592.12 391.96 595.15 392.62
  C 604.17 394.58 616.46 395.29 623.09 388.56
  Q 627.68 383.90 629.39 382.23
  Q 629.78 381.84 630.33 381.82
  C 635.72 381.64 633.18 389.45 639.63 389.68"
/>
<path stroke="#6c5f52" vector-effect="non-scaling-stroke" d="
  M 639.63 389.68
  L 644.61 389.57"
/>
<path stroke="#0b385b" vector-effect="non-scaling-stroke" d="
  M 644.61 389.57
  Q 647.72 395.59 652.58 389.95
  C 653.34 389.07 654.45 388.71 655.06 387.78
  Q 659.26 381.43 665.00 385.53
  C 666.68 386.72 667.50 388.96 669.53 390.15
  C 671.53 391.34 674.99 392.96 677.59 393.00
  Q 679.85 393.04 681.36 393.41
  C 689.74 395.51 697.42 392.21 700.40 384.00
  Q 701.57 380.79 701.46 372.86
  Q 701.17 352.26 701.25 331.66
  C 701.28 322.61 704.20 311.55 693.98 306.77
  C 691.65 305.67 688.70 305.17 685.97 304.52
  C 680.27 303.16 674.77 304.14 669.46 306.21
  Q 667.33 307.03 665.39 306.88
  C 656.76 306.19 647.82 303.76 639.20 305.17
  C 635.73 305.73 632.33 305.30 628.98 306.63
  Q 625.26 308.10 621.48 307.29
  Q 606.86 304.17 593.06 306.84
  Q 592.55 306.94 592.23 307.35
  L 588.71 311.91
  A 0.99 0.99 0.0 0 1 587.13 311.89
  C 582.12 305.02 575.60 305.04 567.68 306.61
  Q 567.18 306.71 566.86 307.11
  L 564.33 310.22"
/>
<path stroke="#765d45" vector-effect="non-scaling-stroke" d="
  M 644.61 389.57
  L 649.97 389.51
  Q 651.50 389.49 651.50 387.96
  L 651.50 321.24
  Q 651.50 320.47 652.26 320.43
  L 660.21 320.04
  A 1.06 1.05 20.4 0 0 660.92 319.72
  C 662.36 318.28 661.75 313.14 661.41 311.40
  A 1.75 1.75 0.0 0 0 659.69 309.98
  L 630.42 310.04
  Q 629.63 310.04 629.62 310.83
  L 629.45 318.96
  Q 629.43 319.74 630.21 319.77
  L 639.29 320.08
  A 0.45 0.45 0.0 0 1 639.72 320.53
  L 639.63 389.68"
/>
<path stroke="#765d45" vector-effect="non-scaling-stroke" d="
  M 563.03 389.28
  Q 564.90 389.55 565.04 388.07
  Q 565.93 378.32 567.39 368.53
  Q 567.47 368.00 568.00 368.00
  L 575.53 368.00
  A 0.65 0.64 -2.4 0 1 576.18 368.59
  L 577.99 388.29
  A 1.05 1.05 0.0 0 0 579.04 389.25
  L 589.49 389.25
  Q 589.98 389.25 589.92 388.77
  L 581.02 310.72
  A 0.97 0.97 0.0 0 0 580.03 309.86
  L 564.33 310.22"
/>
<path stroke="#7c9db4" vector-effect="non-scaling-stroke" d="
  M 308.44 388.06
  Q 316.79 393.19 326.03 389.82
  C 334.02 386.91 334.10 381.10 334.24 373.02
  Q 334.34 366.54 334.01 360.00
  Q 333.98 359.50 333.48 359.50
  L 323.02 359.50
  A 0.52 0.51 0.0 0 0 322.50 360.01
  Q 322.50 368.80 322.50 377.55
  C 322.50 382.73 315.32 383.39 315.29 377.66
  Q 315.15 350.33 315.12 323.00
  Q 315.12 320.85 315.95 318.73
  Q 316.19 318.11 316.85 318.08
  L 320.66 317.96
  A 0.81 0.81 0.0 0 1 321.41 318.43
  C 323.59 323.34 322.45 332.70 322.52 338.26
  A 0.50 0.50 0.0 0 0 323.02 338.75
  L 333.48 338.75
  Q 333.93 338.75 333.96 338.30
  Q 334.48 329.77 334.33 321.26
  C 334.07 306.38 310.66 304.03 304.97 315.11
  Q 303.50 317.97 303.49 324.61
  Q 303.48 350.38 303.53 376.13
  C 303.53 381.33 304.15 385.43 308.44 388.06"
/>
<path stroke="#7c9db4" vector-effect="non-scaling-stroke" d="
  M 519.52 376.66
  C 519.53 389.25 530.35 393.19 541.09 390.13
  C 553.45 386.60 550.30 372.30 550.23 360.21
  A 0.72 0.72 0.0 0 0 549.51 359.50
  L 539.28 359.50
  Q 538.56 359.50 538.56 360.22
  L 538.47 379.29
  A 1.05 1.04 -21.8 0 1 538.14 380.05
  Q 535.48 382.57 531.95 380.98
  A 1.01 0.99 10.6 0 1 531.36 380.14
  Q 531.11 376.41 531.10 374.56
  Q 531.03 348.01 531.27 321.47
  C 531.29 318.95 531.66 318.19 534.23 318.07
  C 537.78 317.90 538.50 318.96 538.50 322.40
  Q 538.49 330.28 538.50 338.01
  A 0.75 0.74 89.6 0 0 539.24 338.75
  L 549.47 338.75
  A 0.76 0.76 0.0 0 0 550.23 337.99
  C 550.42 323.55 553.54 306.08 531.22 308.62
  C 522.26 309.63 519.49 315.17 519.49 323.60
  Q 519.49 350.14 519.52 376.66"
/>
<path stroke="#7c9db4" vector-effect="non-scaling-stroke" d="
  M 77.98 331.97
  Q 37.01 344.77 24.34 385.70
  A 0.39 0.38 8.8 0 0 24.71 386.20
  L 60.38 386.35
  Q 60.92 386.35 61.14 385.86
  C 62.81 382.04 64.52 377.97 66.88 374.80
  C 77.77 360.13 96.12 354.57 113.18 360.42
  C 124.65 364.36 134.50 373.97 137.83 385.92
  A 0.45 0.45 0.0 0 0 138.26 386.25
  L 174.23 386.25
  A 0.54 0.54 0.0 0 0 174.75 385.56
  Q 171.60 374.26 165.36 364.32
  A 0.74 0.74 0.0 0 1 165.77 363.22
  Q 206.19 350.59 218.93 310.18
  Q 219.30 308.99 218.05 308.99
  L 182.53 308.97
  A 0.34 0.32 -79.8 0 0 182.22 309.20
  C 170.07 346.56 118.19 346.39 105.63 309.45
  Q 105.48 309.00 105.00 309.00
  L 68.99 309.00
  Q 68.45 309.00 68.60 309.51
  Q 71.85 321.10 78.23 331.28
  A 0.47 0.46 65.1 0 1 77.98 331.97"
/>
<path stroke="#7c9db4" vector-effect="non-scaling-stroke" d="
  M 436.74 349.56
  A 0.41 0.41 0.0 0 1 436.77 348.78
  Q 445.58 346.65 445.65 337.51
  C 445.70 331.39 446.21 321.19 443.99 316.16
  C 441.28 310.02 432.89 308.17 427.03 309.06
  C 412.15 311.34 414.19 325.13 414.53 337.51
  Q 414.55 338.09 415.13 338.10
  L 425.16 338.21
  A 1.14 1.14 0.0 0 0 426.31 337.02
  C 426.17 333.54 424.13 315.38 432.08 318.89
  A 1.21 1.18 1.5 0 1 432.72 319.55
  C 434.71 324.52 433.76 332.63 433.73 338.06
  C 433.70 342.45 430.76 343.66 427.08 344.73
  Q 426.50 344.90 426.50 345.51
  L 426.51 352.63
  A 1.26 1.24 4.3 0 0 427.58 353.86
  Q 430.47 354.28 432.83 355.95
  Q 433.24 356.24 433.36 356.74
  C 434.68 362.27 433.77 371.07 433.68 376.94
  C 433.60 381.95 426.90 382.13 426.62 377.17
  Q 426.11 367.79 426.55 361.11
  Q 426.59 360.50 425.98 360.50
  L 415.26 360.50
  Q 414.64 360.50 414.60 361.12
  C 413.77 375.72 413.06 392.74 434.08 390.12
  C 448.61 388.31 445.51 369.87 445.53 360.00
  C 445.55 354.11 441.47 351.23 436.74 349.56"
/>
<path stroke="#7c9db4" vector-effect="non-scaling-stroke" d="
  M 282.30 350.33
  A 0.52 0.52 0.0 0 1 281.40 350.06
  L 275.51 310.76
  Q 275.34 309.63 274.20 309.67
  L 264.26 310.04
  A 0.64 0.63 -6.9 0 0 263.66 310.80
  Q 269.41 340.57 275.30 369.55
  C 276.73 376.60 276.38 381.95 274.44 388.44
  A 0.79 0.79 0.0 0 0 275.19 389.46
  L 283.35 389.58
  A 2.02 2.01 5.4 0 0 285.36 387.92
  L 299.22 311.90
  A 1.80 1.80 0.0 0 0 297.40 309.78
  L 289.33 310.00
  A 1.07 1.06 -86.5 0 0 288.30 310.92
  Q 285.60 330.16 282.81 349.01
  Q 282.67 349.92 282.30 350.33"
/>
<path stroke="#7c9db4" vector-effect="non-scaling-stroke" d="
  M 259.48 323.44
  C 259.17 307.68 239.86 309.80 229.84 309.74
  A 1.05 1.04 0.3 0 0 228.78 310.78
  L 228.60 388.92
  Q 228.60 389.50 229.17 389.50
  L 239.82 389.50
  Q 240.39 389.50 240.38 388.93
  L 240.19 360.03
  Q 240.19 359.36 240.85 359.28
  C 250.71 358.06 259.06 357.03 259.40 344.79
  Q 259.70 334.14 259.48 323.44"
/>
<path stroke="#7c9db4" vector-effect="non-scaling-stroke" d="
  M 353.04 319.25
  L 365.80 319.25
  A 0.70 0.69 0.4 0 0 366.49 318.58
  L 366.83 310.39
  A 0.69 0.68 0.8 0 0 366.13 309.68
  L 341.18 310.05
  A 0.77 0.77 0.0 0 0 340.42 310.82
  L 340.72 388.95
  Q 340.73 389.51 341.29 389.52
  C 349.76 389.58 365.60 391.83 370.15 381.05
  Q 371.59 377.62 371.53 368.34
  C 371.48 360.89 373.21 349.75 366.16 345.02
  C 362.82 342.78 357.16 342.34 352.86 341.95
  Q 352.30 341.90 352.31 341.33
  L 352.57 319.71
  Q 352.58 319.25 353.04 319.25"
/>
<path stroke="#7c9db4" vector-effect="non-scaling-stroke" d="
  M 463.54 351.01
  A 0.30 0.30 0.0 0 1 463.84 350.71
  L 469.95 350.76
  A 0.30 0.30 0.0 0 1 470.25 351.06
  L 470.25 389.20
  A 0.30 0.30 0.0 0 0 470.55 389.50
  L 481.64 389.50
  A 0.30 0.30 0.0 0 0 481.94 389.20
  L 481.90 310.03
  A 0.30 0.30 0.0 0 0 481.59 309.73
  L 470.54 310.09
  A 0.30 0.30 0.0 0 0 470.25 310.39
  L 470.25 340.03
  A 0.30 0.30 0.0 0 1 469.97 340.33
  L 463.82 340.74
  A 0.30 0.30 0.0 0 1 463.50 340.44
  L 463.59 310.17
  A 0.30 0.30 0.0 0 0 463.28 309.87
  L 452.22 310.06
  A 0.30 0.30 0.0 0 0 451.93 310.36
  L 451.87 389.16
  A 0.30 0.30 0.0 0 0 452.17 389.46
  L 463.33 389.58
  A 0.30 0.30 0.0 0 0 463.63 389.28
  L 463.54 351.01"
/>
<path stroke="#7c9db4" vector-effect="non-scaling-stroke" d="
  M 397.32 348.71
  C 399.12 361.39 397.87 375.73 397.69 388.45
  A 1.03 1.03 0.0 0 0 398.72 389.50
  L 407.74 389.50
  Q 408.23 389.50 408.23 389.01
  L 408.29 310.81
  Q 408.29 310.09 407.56 310.08
  L 397.52 309.96
  Q 397.01 309.96 396.91 310.46
  L 388.89 350.47
  A 0.20 0.20 0.0 0 1 388.49 350.46
  C 387.71 345.01 388.24 338.98 388.25 334.64
  Q 388.27 322.59 388.24 310.51
  Q 388.24 310.00 387.74 310.00
  L 379.24 310.00
  Q 377.98 310.00 377.98 311.26
  L 378.05 388.96
  Q 378.05 389.38 378.46 389.39
  L 388.49 389.55
  Q 389.02 389.56 389.12 389.04
  L 397.20 348.71
  Q 397.27 348.36 397.32 348.71"
/>
<path stroke="#7c9db4" vector-effect="non-scaling-stroke" d="
  M 500.23 320.73
  A 0.43 0.43 0.0 0 1 500.66 320.30
  L 514.26 320.22
  A 0.43 0.43 0.0 0 0 514.69 319.81
  L 515.12 310.45
  A 0.43 0.43 0.0 0 0 514.69 310.00
  L 489.25 310.00
  A 0.43 0.43 0.0 0 0 488.82 310.43
  L 488.59 389.07
  A 0.43 0.43 0.0 0 0 489.02 389.50
  L 514.57 389.50
  A 0.43 0.43 0.0 0 0 515.00 389.07
  L 515.00 379.48
  A 0.43 0.43 0.0 0 0 514.57 379.05
  L 500.68 379.03
  A 0.43 0.43 0.0 0 1 500.25 378.60
  L 500.25 351.18
  A 0.43 0.43 0.0 0 1 500.68 350.75
  L 513.82 350.75
  A 0.43 0.43 0.0 0 0 514.25 350.32
  L 514.25 340.93
  A 0.43 0.43 0.0 0 0 513.82 340.50
  L 500.69 340.50
  A 0.43 0.43 0.0 0 1 500.26 340.07
  L 500.23 320.73"
/>
<path stroke="#729db4" vector-effect="non-scaling-stroke" d="
  M 184.64 410.04
  C 182.48 408.37 179.81 402.01 176.55 404.02
  Q 175.24 404.83 176.23 406.00
  L 181.10 411.75
  A 1.19 1.17 -47.3 0 1 181.15 413.20
  L 175.16 421.42
  A 0.84 0.83 21.0 0 0 175.75 422.74
  C 179.55 423.13 182.09 418.20 184.39 415.70
  Q 184.79 415.26 185.08 415.79
  C 186.17 417.78 190.34 424.63 193.32 422.52
  Q 194.23 421.88 193.57 420.99
  L 188.22 413.84
  A 1.61 1.60 -45.5 0 1 188.21 411.92
  L 193.54 404.64
  Q 193.89 404.17 193.40 403.85
  C 190.12 401.74 186.89 407.19 185.46 409.87
  Q 185.15 410.44 184.64 410.04"
/>
<path stroke="#729db4" vector-effect="non-scaling-stroke" d="
  M 632.68 417.57
  C 635.92 422.83 642.37 423.76 648.04 422.32
  Q 648.50 422.20 648.50 421.73
  L 648.50 419.77
  A 0.56 0.56 0.0 0 0 647.86 419.22
  C 629.27 421.86 635.74 402.44 648.11 407.72
  Q 648.86 408.04 648.77 407.23
  L 648.44 404.25
  Q 648.38 403.74 647.87 403.65
  C 641.97 402.67 634.74 404.20 632.12 410.02
  Q 630.39 413.87 632.68 417.57"
/>
<path stroke="#729db4" vector-effect="non-scaling-stroke" d="
  M 25.67 420.89
  A 1.14 1.14 0.0 0 0 26.72 422.52
  Q 30.33 422.48 31.49 419.03
  A 0.80 0.78 9.2 0 1 32.24 418.50
  L 40.14 418.51
  A 0.84 0.83 78.0 0 1 40.90 419.01
  L 42.37 422.33
  A 0.76 0.76 0.0 0 0 43.11 422.79
  L 45.83 422.65
  A 1.23 1.22 75.6 0 0 46.87 420.89
  L 39.36 405.33
  A 3.53 3.53 0.0 0 0 32.98 405.36
  L 25.67 420.89"
/>
<path stroke="#729db4" vector-effect="non-scaling-stroke" d="
  M 83.21 407.40
  A 0.79 0.79 0.0 0 1 83.97 408.18
  L 84.07 421.87
  A 0.79 0.79 0.0 0 0 84.90 422.65
  L 87.74 422.53
  A 0.79 0.79 0.0 0 0 88.50 421.74
  L 88.51 407.61
  A 0.79 0.79 0.0 0 1 89.44 406.83
  L 93.39 407.57
  A 0.79 0.79 0.0 0 0 94.30 406.98
  L 94.95 404.43
  A 0.79 0.79 0.0 0 0 94.17 403.44
  L 78.03 403.82
  A 0.79 0.79 0.0 0 0 77.26 404.60
  L 77.25 406.39
  A 0.79 0.79 0.0 0 0 78.00 407.18
  L 83.21 407.40"
/>
<path stroke="#729db4" vector-effect="non-scaling-stroke" d="
  M 123.2196 413.1136
  A 11.05 9.81 -0.5 0 0 112.0844 403.4004
  A 11.05 9.81 -0.5 0 0 101.1204 413.3064
  A 11.05 9.81 -0.5 0 0 112.2556 423.0196
  A 11.05 9.81 -0.5 0 0 123.2196 413.1136"
/>
<path stroke="#729db4" vector-effect="non-scaling-stroke" d="
  M 130.30 407.23
  C 132.46 407.21 136.52 406.42 136.33 410.00
  Q 136.00 415.98 136.09 421.96
  Q 136.10 422.54 136.68 422.52
  L 139.85 422.41
  A 0.73 0.73 0.0 0 0 140.56 421.66
  L 140.21 408.19
  A 0.67 0.66 89.6 0 1 140.87 407.51
  L 146.03 407.50
  Q 146.62 407.49 146.59 406.91
  L 146.47 404.18
  Q 146.45 403.66 145.93 403.66
  L 130.16 403.56
  Q 129.56 403.55 129.57 404.15
  L 129.61 406.55
  Q 129.61 407.24 130.30 407.23"
/>
<path stroke="#729db4" vector-effect="non-scaling-stroke" d="
  M 216.25 410.42
  A 0.70 0.70 0.0 0 1 215.54 411.11
  L 207.46 410.94
  A 0.70 0.70 0.0 0 1 206.77 410.22
  L 206.94 404.47
  A 0.70 0.70 0.0 0 0 206.23 403.74
  L 202.95 403.77
  A 0.70 0.70 0.0 0 0 202.25 404.47
  L 202.25 422.04
  A 0.70 0.70 0.0 0 0 203.02 422.74
  L 206.11 422.42
  A 0.70 0.70 0.0 0 0 206.74 421.72
  L 206.76 415.70
  A 0.70 0.70 0.0 0 1 207.46 415.00
  L 215.63 415.00
  A 0.70 0.70 0.0 0 1 216.33 415.75
  L 215.86 421.81
  A 0.70 0.70 0.0 0 0 216.62 422.56
  L 220.11 422.23
  A 0.70 0.70 0.0 0 0 220.75 421.52
  L 220.41 404.36
  A 0.70 0.70 0.0 0 0 219.71 403.67
  L 216.94 403.69
  A 0.70 0.70 0.0 0 0 216.25 404.39
  L 216.25 410.42"
/>
<path stroke="#729db4" vector-effect="non-scaling-stroke" d="
  M 244.11 410.73
  L 243.95 422.03
  Q 243.94 422.81 244.72 422.76
  L 248.12 422.53
  Q 248.76 422.49 248.76 421.85
  C 248.75 416.57 249.56 409.02 248.30 404.02
  Q 248.12 403.31 247.40 403.41
  L 243.65 403.91
  Q 243.06 403.99 242.74 404.48
  L 235.29 415.80
  A 0.59 0.59 0.0 0 1 234.21 415.50
  L 233.77 403.97
  A 0.50 0.49 85.7 0 0 233.22 403.49
  L 229.88 403.83
  Q 229.38 403.88 229.38 404.38
  L 229.22 421.69
  A 1.14 1.13 -1.9 0 0 230.44 422.83
  L 234.55 422.51
  Q 235.09 422.47 235.40 422.03
  Q 238.89 417.08 241.81 411.82
  Q 242.33 410.90 243.77 410.47
  Q 244.11 410.37 244.11 410.73"
/>
<path stroke="#729db4" vector-effect="non-scaling-stroke" d="
  M 262.20 410.67
  L 261.81 404.38
  A 0.61 0.61 0.0 0 0 261.21 403.80
  L 258.02 403.73
  Q 257.50 403.71 257.50 404.23
  L 257.50 421.93
  Q 257.50 422.62 258.18 422.64
  L 261.30 422.74
  A 0.71 0.70 89.6 0 0 262.03 421.99
  L 261.73 416.28
  A 1.21 1.21 0.0 0 1 263.73 415.31
  C 266.95 418.16 270.01 424.95 275.19 421.95
  A 0.49 0.49 0.0 0 0 275.28 421.17
  C 272.41 418.46 269.70 416.38 266.95 412.63
  Q 266.63 412.19 267.03 411.81
  L 274.34 404.84
  A 0.60 0.60 0.0 0 0 274.19 403.86
  C 270.52 402.06 265.45 408.76 263.01 410.99
  A 0.48 0.48 0.0 0 1 262.20 410.67"
/>
<path stroke="#729db4" vector-effect="non-scaling-stroke" d="
  M 337.11 420.15
  C 340.33 423.05 346.44 423.11 350.59 422.44
  Q 351.00 422.37 351.00 421.95
  L 351.00 419.51
  Q 351.00 418.83 350.34 419.00
  C 335.12 422.96 334.87 404.20 350.59 407.27
  A 0.56 0.55 1.5 0 0 351.25 406.65
  L 350.94 404.45
  Q 350.86 403.88 350.30 403.77
  Q 343.37 402.39 338.23 405.86
  C 332.99 409.39 332.32 415.84 337.11 420.15"
/>
<path stroke="#729db4" vector-effect="non-scaling-stroke" d="
  M 404.80 422.52
  C 409.46 422.32 419.29 424.27 419.54 417.16
  C 419.61 415.17 418.18 413.96 416.90 412.60
  A 0.63 0.63 0.0 0 1 416.91 411.73
  L 418.52 410.08
  A 1.04 1.03 -24.4 0 0 418.80 409.35
  C 418.61 402.58 409.65 403.38 404.78 403.68
  Q 404.16 403.72 404.16 404.34
  L 404.14 421.88
  Q 404.14 422.54 404.80 422.52"
/>
<path stroke="#729db4" vector-effect="non-scaling-stroke" d="
  M 443.50 410.56
  L 443.42 421.25
  A 1.28 1.27 -1.5 0 0 444.77 422.53
  L 447.05 422.40
  Q 447.70 422.36 447.71 421.71
  L 447.89 404.94
  Q 447.90 404.40 447.43 404.14
  C 445.18 402.90 443.04 403.27 441.45 405.44
  Q 437.67 410.61 434.18 416.45
  A 0.73 0.73 0.0 0 1 432.83 416.05
  L 433.15 404.68
  Q 433.16 404.30 432.83 404.09
  C 430.17 402.39 428.74 403.58 428.75 406.48
  Q 428.75 414.10 428.75 421.79
  Q 428.75 422.32 429.26 422.47
  C 432.82 423.58 434.63 421.98 436.49 418.90
  Q 439.24 414.36 442.59 410.23
  A 0.51 0.51 0.0 0 1 443.50 410.56"
/>
<path stroke="#729db4" vector-effect="non-scaling-stroke" d="
  M 458.44 419.31
  Q 464.53 424.53 472.45 422.17
  Q 473.00 422.01 473.00 421.44
  L 473.00 419.51
  A 0.57 0.57 0.0 0 0 472.23 418.97
  C 466.82 421.00 459.11 418.92 461.14 411.56
  C 462.61 406.20 468.61 406.84 472.91 407.03
  Q 473.60 407.06 473.48 406.38
  L 473.14 404.46
  Q 473.03 403.86 472.44 403.76
  C 467.30 402.89 460.54 403.85 457.56 408.39
  C 455.80 411.07 455.33 416.65 458.44 419.31"
/>
<path stroke="#729db4" vector-effect="non-scaling-stroke" d="
  M 556.34 407.50
  A 0.76 0.76 0.0 0 1 557.14 406.76
  L 564.03 407.10
  A 0.76 0.76 0.0 0 1 564.75 407.86
  L 564.75 421.72
  A 0.76 0.76 0.0 0 0 565.52 422.48
  L 568.25 422.42
  A 0.76 0.76 0.0 0 0 569.00 421.66
  L 569.00 404.45
  A 0.76 0.76 0.0 0 0 568.25 403.69
  L 552.27 403.58
  A 0.76 0.76 0.0 0 0 551.50 404.34
  L 551.50 422.04
  A 0.76 0.76 0.0 0 0 552.32 422.79
  L 555.33 422.55
  A 0.76 0.76 0.0 0 0 556.03 421.81
  L 556.34 407.50"
/>
<path stroke="#729db4" vector-effect="non-scaling-stroke" d="
  M 660.73 407.33
  A 0.79 0.79 0.0 0 1 661.50 408.12
  L 661.50 421.97
  A 0.79 0.79 0.0 0 0 662.31 422.76
  L 665.19 422.71
  A 0.79 0.79 0.0 0 0 665.96 421.93
  L 666.22 407.70
  A 0.79 0.79 0.0 0 1 667.08 406.93
  L 671.58 407.30
  A 0.79 0.79 0.0 0 0 672.43 406.58
  L 672.60 404.35
  A 0.79 0.79 0.0 0 0 671.80 403.50
  L 655.88 403.84
  A 0.79 0.79 0.0 0 0 655.11 404.55
  L 654.94 406.34
  A 0.79 0.79 0.0 0 0 655.71 407.20
  L 660.73 407.33"
/>
<path stroke="#729db4" vector-effect="non-scaling-stroke" d="
  M 694.50 411.76
  L 694.50 421.72
  Q 694.50 422.11 694.85 422.30
  Q 696.47 423.17 698.20 422.54
  Q 698.75 422.33 698.75 421.75
  L 698.75 404.84
  A 1.35 1.34 2.6 0 0 697.52 403.50
  C 694.84 403.27 693.42 404.15 691.89 406.43
  Q 688.44 411.59 685.04 416.62
  A 0.49 0.49 0.0 0 1 684.15 416.35
  L 683.99 404.49
  Q 683.97 403.59 683.07 403.56
  L 680.33 403.48
  Q 679.62 403.45 679.61 404.17
  L 679.45 421.72
  Q 679.45 422.35 680.04 422.53
  C 686.31 424.43 689.94 415.82 692.64 411.25
  Q 694.50 408.09 694.50 411.76"
/>
<path stroke="#729db4" vector-effect="non-scaling-stroke" d="
  M 55.00 422.31
  C 59.93 423.12 70.01 423.86 70.88 416.90
  A 1.06 1.02 28.0 0 0 70.60 416.04
  L 67.78 413.05
  A 0.69 0.68 45.3 0 1 67.78 412.10
  Q 69.21 410.64 69.33 408.69
  C 69.72 402.47 59.08 403.60 55.28 404.15
  Q 54.75 404.23 54.75 404.77
  L 54.75 422.02
  A 0.30 0.29 4.6 0 0 55.00 422.31"
/>
<path stroke="#729db4" vector-effect="non-scaling-stroke" d="
  M 158.96 418.59
  L 158.37 415.91
  A 0.75 0.75 0.0 0 1 159.06 415.00
  L 165.44 414.65
  Q 166.00 414.62 166.16 414.08
  Q 166.58 412.71 165.84 411.53
  Q 165.61 411.17 165.19 411.19
  L 159.31 411.56
  Q 158.49 411.61 158.53 410.79
  L 158.67 407.97
  A 0.76 0.75 1.2 0 1 159.43 407.25
  L 166.29 407.25
  A 0.74 0.73 -86.5 0 0 167.02 406.60
  L 167.30 404.49
  Q 167.40 403.75 166.66 403.75
  L 154.71 403.75
  Q 154.17 403.75 154.16 404.29
  L 154.05 422.02
  Q 154.05 422.68 154.71 422.68
  L 166.72 422.67
  Q 167.37 422.67 167.31 422.02
  L 167.12 420.05
  A 0.82 0.81 87.6 0 0 166.32 419.31
  L 159.73 419.22
  Q 159.09 419.21 158.96 418.59"
/>
<path stroke="#729db4" vector-effect="non-scaling-stroke" d="
  M 288.47 418.52
  C 292.63 418.44 298.21 416.88 299.44 422.42
  Q 299.58 423.03 300.19 422.94
  L 303.17 422.52
  Q 304.08 422.40 303.69 421.56
  L 296.21 405.51
  A 3.72 3.71 45.1 0 0 289.48 405.50
  L 282.31 420.84
  A 1.36 1.35 12.1 0 0 283.56 422.76
  L 285.29 422.73
  Q 285.93 422.72 286.21 422.14
  L 287.68 419.03
  Q 287.92 418.53 288.47 418.52"
/>
<path stroke="#729db4" vector-effect="non-scaling-stroke" d="
  M 363.95 408.13
  A 0.74 0.74 0.0 0 1 364.67 407.32
  L 371.78 407.18
  A 0.74 0.74 0.0 0 0 372.50 406.44
  L 372.50 404.49
  A 0.74 0.74 0.0 0 0 371.76 403.75
  L 360.17 403.75
  A 0.74 0.74 0.0 0 0 359.43 404.48
  L 359.21 421.84
  A 0.74 0.74 0.0 0 0 359.94 422.59
  L 372.03 422.67
  A 0.74 0.74 0.0 0 0 372.75 421.75
  L 372.26 419.81
  A 0.74 0.74 0.0 0 0 371.54 419.25
  L 365.10 419.25
  A 0.74 0.74 0.0 0 1 364.37 418.64
  L 363.90 415.90
  A 0.74 0.74 0.0 0 1 364.59 415.03
  L 370.80 414.69
  A 0.74 0.74 0.0 0 0 371.50 413.95
  L 371.50 411.99
  A 0.74 0.74 0.0 0 0 370.76 411.25
  L 364.89 411.25
  A 0.74 0.74 0.0 0 1 364.15 410.57
  L 363.95 408.13"
/>
<path stroke="#729db4" vector-effect="non-scaling-stroke" d="
  M 381.85 422.63
  L 384.80 422.40
  A 0.69 0.68 -1.4 0 0 385.43 421.74
  L 385.63 416.34
  Q 385.65 415.82 386.18 415.77
  C 388.92 415.54 391.94 415.51 394.08 413.83
  C 397.36 411.27 396.86 407.00 393.21 405.08
  C 389.94 403.36 386.14 403.52 381.84 403.86
  Q 381.25 403.91 381.25 404.50
  L 381.25 422.08
  A 0.55 0.55 0.0 0 0 381.85 422.63"
/>
<path stroke="#729db4" vector-effect="non-scaling-stroke" d="
  M 511.68 411.78
  Q 515.07 409.26 512.63 405.53
  Q 512.40 405.17 512.00 405.00
  Q 506.29 402.67 501.04 403.92
  Q 498.70 404.48 499.98 407.06
  Q 500.21 407.52 500.70 407.35
  Q 504.43 406.07 508.17 407.36
  A 1.74 1.74 0.0 0 1 507.81 410.73
  L 503.06 411.31
  A 1.43 1.43 0.0 0 0 502.97 414.13
  L 508.55 415.19
  Q 508.97 415.27 509.13 415.67
  C 511.33 421.34 502.94 420.09 500.11 418.51
  A 0.40 0.40 0.0 0 0 499.52 418.86
  L 499.49 421.69
  Q 499.49 422.18 499.97 422.28
  Q 506.09 423.59 511.74 421.49
  C 516.46 419.74 514.27 414.95 511.64 412.52
  Q 511.21 412.13 511.68 411.78"
/>
<path stroke="#729db4" vector-effect="non-scaling-stroke" d="
  M 528.44 418.53
  C 531.69 418.44 538.05 417.34 538.86 421.65
  A 1.28 1.26 9.4 0 0 539.49 422.52
  Q 541.00 423.37 542.68 422.73
  Q 543.99 422.24 543.39 420.98
  L 536.07 405.51
  A 3.71 3.71 0.0 0 0 529.35 405.54
  L 521.95 421.55
  A 0.68 0.67 -65.3 0 0 522.28 422.45
  Q 523.80 423.13 525.42 422.55
  A 1.24 1.23 4.0 0 0 526.07 421.99
  L 527.64 419.03
  Q 527.89 418.54 528.44 418.53"
/>
<path stroke="#729db4" vector-effect="non-scaling-stroke" d="
  M 590.13 413.14
  C 587.08 413.41 581.28 413.69 581.71 409.75
  Q 582.01 406.96 581.83 404.78
  A 0.87 0.85 -78.3 0 0 581.39 404.10
  C 579.02 402.81 577.56 403.80 577.43 406.41
  C 576.91 416.58 582.19 416.48 590.26 416.53
  A 0.49 0.49 0.0 0 1 590.75 417.02
  L 590.75 421.61
  Q 590.75 422.21 591.35 422.29
  L 593.49 422.54
  A 1.33 1.32 3.5 0 0 594.97 421.24
  L 595.07 404.72
  Q 595.07 404.14 594.50 404.06
  L 591.54 403.68
  Q 590.84 403.59 590.82 404.29
  L 590.59 412.64
  Q 590.58 413.09 590.13 413.14"
/>
<path stroke="#729db4" vector-effect="non-scaling-stroke" d="
  M 603.05 422.29
  C 607.27 423.59 607.10 421.16 608.93 418.72
  A 0.94 0.94 0.0 0 1 609.69 418.36
  L 617.60 418.56
  A 0.90 0.88 -16.8 0 1 618.27 418.91
  C 619.95 421.18 620.06 423.63 623.64 422.62
  Q 624.94 422.25 624.36 421.03
  L 616.49 404.52
  A 0.92 0.91 87.4 0 0 615.98 404.05
  C 612.81 402.92 611.17 404.09 609.74 406.97
  Q 606.06 414.40 602.87 421.90
  Q 602.74 422.19 603.05 422.29"
/>
<path stroke="#6c5f52" vector-effect="non-scaling-stroke" d="
  M 321.0267 413.6534
  A 5.45 4.57 5.3 0 0 316.0221 408.5995
  A 5.45 4.57 5.3 0 0 310.1733 412.6466
  A 5.45 4.57 5.3 0 0 315.1779 417.7005
  A 5.45 4.57 5.3 0 0 321.0267 413.6534"
/>
<path stroke="#6c5f52" vector-effect="non-scaling-stroke" d="
  M 492.2057 413.0677
  A 5.29 4.69 -2.3 0 0 486.7318 408.5938
  A 5.29 4.69 -2.3 0 0 481.6343 413.4923
  A 5.29 4.69 -2.3 0 0 487.1082 417.9662
  A 5.29 4.69 -2.3 0 0 492.2057 413.0677"
/>
<path stroke="#765d45" vector-effect="non-scaling-stroke" d="
  M 697.70 321.58
  A 13.16 13.16 0.0 0 0 684.54 308.42
  L 679.80 308.42
  A 13.16 13.16 0.0 0 0 666.64 321.58
  L 666.64 377.74
  A 13.16 13.16 0.0 0 0 679.80 390.90
  L 684.54 390.90
  A 13.16 13.16 0.0 0 0 697.70 377.74
  L 697.70 321.58"
/>
<path stroke="#765d45" vector-effect="non-scaling-stroke" d="
  M 616.13 348.09
  A 0.91 0.91 0.0 0 1 616.15 346.30
  C 627.07 344.36 624.58 332.50 624.44 324.00
  C 624.14 306.24 606.32 309.99 594.97 310.00
  Q 594.43 310.00 594.38 310.54
  Q 594.02 314.39 594.01 318.26
  Q 593.96 353.38 594.02 388.56
  Q 594.02 389.06 594.53 389.10
  C 604.13 389.85 616.94 391.53 622.30 383.32
  C 626.05 377.58 625.27 365.76 624.83 358.99
  C 624.46 353.17 621.86 349.22 616.13 348.09"
/>
<path stroke="#805832" vector-effect="non-scaling-stroke" d="
  M 685.69 321.31
  A 3.52 3.52 0.0 0 0 682.17 317.79
  L 682.07 317.79
  A 3.52 3.52 0.0 0 0 678.55 321.31
  L 678.55 377.93
  A 3.52 3.52 0.0 0 0 682.07 381.45
  L 682.17 381.45
  A 3.52 3.52 0.0 0 0 685.69 377.93
  L 685.69 321.31"
/>
<path stroke="#7c9db4" vector-effect="non-scaling-stroke" d="
  M 240.50 319.74
  L 240.50 349.04
  A 0.30 0.30 0.0 0 0 240.80 349.34
  L 242.83 349.34
  A 4.93 4.40 0.0 0 0 247.76 344.94
  L 247.76 323.84
  A 4.93 4.40 0.0 0 0 242.83 319.44
  L 240.80 319.44
  A 0.30 0.30 0.0 0 0 240.50 319.74"
/>
<path stroke="#7c9db4" vector-effect="non-scaling-stroke" d="
  M 352.27 352.18
  L 352.47 379.52
  A 0.44 0.44 0.0 0 0 352.91 379.95
  L 354.94 379.94
  A 5.01 4.89 -0.4 0 0 359.91 375.01
  L 359.79 356.57
  A 5.01 4.89 -0.4 0 0 354.74 351.72
  L 352.71 351.73
  A 0.44 0.44 0.0 0 0 352.27 352.18"
/>
<path stroke="#805832" vector-effect="non-scaling-stroke" d="
  M 569.18 357.46
  C 570.45 357.87 572.54 357.99 573.66 357.20
  A 0.90 0.89 -22.1 0 0 574.03 356.34
  C 573.86 355.18 574.23 354.06 574.19 353.08
  Q 573.69 339.07 572.18 325.23
  A 0.33 0.33 0.0 0 0 571.52 325.23
  L 568.62 356.60
  Q 568.56 357.26 569.18 357.46"
/>
<path stroke="#805832" vector-effect="non-scaling-stroke" d="
  M 605.69 320.50
  L 605.79 341.32
  A 1.49 1.49 0.0 0 0 607.29 342.80
  L 608.77 342.79
  A 6.30 4.25 89.7 0 0 612.99 336.47
  L 612.93 325.27
  A 6.30 4.25 89.7 0 0 608.65 318.99
  L 607.17 319.00
  A 1.49 1.49 0.0 0 0 605.69 320.50"
/>
<path stroke="#805832" vector-effect="non-scaling-stroke" d="
  M 605.87 353.60
  L 605.79 379.04
  A 1.18 1.18 0.0 0 0 606.96 380.22
  L 607.92 380.22
  A 5.42 5.06 -89.8 0 0 613.00 374.82
  L 613.06 357.86
  A 5.42 5.06 -89.8 0 0 608.02 352.42
  L 607.06 352.42
  A 1.18 1.18 0.0 0 0 605.87 353.60"
/>
<path stroke="#729db4" vector-effect="non-scaling-stroke" d="
  M 34.80 415.39
  L 38.31 415.36
  Q 39.19 415.35 39.08 414.48
  Q 38.64 410.96 35.74 409.00
  Q 35.16 408.61 34.95 409.28
  L 33.57 413.75
  A 1.27 1.27 0.0 0 0 34.80 415.39"
/>
<path stroke="#729db4" vector-effect="non-scaling-stroke" d="
  M 111.8640 420.1449
  A 6.93 6.37 92.2 0 0 118.4953 413.4645
  A 6.93 6.37 92.2 0 0 112.3960 406.2951
  A 6.93 6.37 92.2 0 0 105.7647 412.9755
  A 6.93 6.37 92.2 0 0 111.8640 420.1449"
/>
<path stroke="#7d9ba7" vector-effect="non-scaling-stroke" d="
  M 408.85 407.55
  L 408.70 410.19
  A 0.93 0.93 0.0 0 0 409.58 411.17
  L 409.74 411.18
  A 4.39 1.99 3.1 0 0 414.23 409.43
  L 414.26 408.91
  A 4.39 1.99 3.1 0 0 409.98 406.68
  L 409.82 406.68
  A 0.93 0.93 0.0 0 0 408.85 407.55"
/>
<path stroke="#7d9ba7" vector-effect="non-scaling-stroke" d="
  M 408.84 415.82
  L 408.84 418.40
  A 1.08 1.08 0.0 0 0 409.92 419.49
  L 410.52 419.49
  A 4.70 2.22 0.1 0 0 415.22 417.28
  L 415.22 416.98
  A 4.70 2.22 0.1 0 0 410.52 414.75
  L 409.92 414.75
  A 1.08 1.08 0.0 0 0 408.84 415.82"
/>
<path stroke="#729db4" vector-effect="non-scaling-stroke" d="
  M 59.25 407.85
  L 59.25 410.43
  A 1.08 1.08 0.0 0 0 60.34 411.51
  L 60.90 411.50
  A 4.10 2.18 -0.2 0 0 64.99 409.31
  L 64.99 408.93
  A 4.10 2.18 -0.2 0 0 60.88 406.76
  L 60.32 406.77
  A 1.08 1.08 0.0 0 0 59.25 407.85"
/>
<path stroke="#7d9ba7" vector-effect="non-scaling-stroke" d="
  M 59.25 415.83
  L 59.25 418.49
  A 0.93 0.93 0.0 0 0 60.17 419.42
  L 61.70 419.43
  A 4.52 2.11 0.2 0 0 66.23 417.33
  L 66.23 417.03
  A 4.52 2.11 0.2 0 0 61.72 414.91
  L 60.19 414.90
  A 0.93 0.93 0.0 0 0 59.25 415.83"
/>
<path stroke="#7d9ba7" vector-effect="non-scaling-stroke" d="
  M 289.86 414.76
  A 0.35 0.35 0.0 0 0 290.19 415.25
  L 295.33 415.25
  A 0.35 0.35 0.0 0 0 295.66 414.76
  L 293.08 408.77
  A 0.35 0.35 0.0 0 0 292.44 408.77
  L 289.86 414.76"
/>
<path stroke="#7d9ba7" vector-effect="non-scaling-stroke" d="
  M 391.01 408.13
  L 387.51 406.66
  A 1.12 1.12 0.0 0 0 386.04 407.26
  L 385.97 407.44
  A 4.52 3.00 -67.2 0 0 386.98 412.77
  L 387.02 412.79
  A 4.52 3.00 -67.2 0 0 391.53 409.79
  L 391.61 409.60
  A 1.12 1.12 0.0 0 0 391.01 408.13"
/>
<path stroke="#729db4" vector-effect="non-scaling-stroke" d="
  M 529.68 414.31
  A 0.73 0.73 0.0 0 0 530.33 415.34
  L 534.79 415.43
  A 0.73 0.73 0.0 0 0 535.48 414.43
  L 533.35 409.16
  A 0.73 0.73 0.0 0 0 532.01 409.13
  L 529.68 414.31"
/>
<path stroke="#7d9ba7" vector-effect="non-scaling-stroke" d="
  M 611.47 415.13
  C 612.84 415.50 614.74 415.89 615.93 414.96
  A 0.92 0.91 -25.3 0 0 616.27 414.03
  Q 615.60 410.95 613.10 408.99
  Q 612.47 408.48 612.28 409.27
  L 611.08 414.49
  Q 610.96 414.99 611.47 415.13"
/>
</g>
<path fill="#003a68" d="
  M 0.00 0.00
  L 717.00 0.00
  L 717.00 717.00
  L 0.00 717.00
  L 0.00 0.00
  Z
  M 564.33 310.22
  Q 562.98 311.53 562.62 314.94
  Q 558.75 350.74 554.36 388.04
  Q 554.18 389.57 555.71 389.52
  L 563.03 389.28
  C 569.85 394.74 574.64 390.53 581.62 392.17
  C 584.64 392.88 586.55 392.48 589.39 392.21
  Q 592.12 391.96 595.15 392.62
  C 604.17 394.58 616.46 395.29 623.09 388.56
  Q 627.68 383.90 629.39 382.23
  Q 629.78 381.84 630.33 381.82
  C 635.72 381.64 633.18 389.45 639.63 389.68
  L 644.61 389.57
  Q 647.72 395.59 652.58 389.95
  C 653.34 389.07 654.45 388.71 655.06 387.78
  Q 659.26 381.43 665.00 385.53
  C 666.68 386.72 667.50 388.96 669.53 390.15
  C 671.53 391.34 674.99 392.96 677.59 393.00
  Q 679.85 393.04 681.36 393.41
  C 689.74 395.51 697.42 392.21 700.40 384.00
  Q 701.57 380.79 701.46 372.86
  Q 701.17 352.26 701.25 331.66
  C 701.28 322.61 704.20 311.55 693.98 306.77
  C 691.65 305.67 688.70 305.17 685.97 304.52
  C 680.27 303.16 674.77 304.14 669.46 306.21
  Q 667.33 307.03 665.39 306.88
  C 656.76 306.19 647.82 303.76 639.20 305.17
  C 635.73 305.73 632.33 305.30 628.98 306.63
  Q 625.26 308.10 621.48 307.29
  Q 606.86 304.17 593.06 306.84
  Q 592.55 306.94 592.23 307.35
  L 588.71 311.91
  A 0.99 0.99 0.0 0 1 587.13 311.89
  C 582.12 305.02 575.60 305.04 567.68 306.61
  Q 567.18 306.71 566.86 307.11
  L 564.33 310.22
  Z
  M 308.44 388.06
  Q 316.79 393.19 326.03 389.82
  C 334.02 386.91 334.10 381.10 334.24 373.02
  Q 334.34 366.54 334.01 360.00
  Q 333.98 359.50 333.48 359.50
  L 323.02 359.50
  A 0.52 0.51 0.0 0 0 322.50 360.01
  Q 322.50 368.80 322.50 377.55
  C 322.50 382.73 315.32 383.39 315.29 377.66
  Q 315.15 350.33 315.12 323.00
  Q 315.12 320.85 315.95 318.73
  Q 316.19 318.11 316.85 318.08
  L 320.66 317.96
  A 0.81 0.81 0.0 0 1 321.41 318.43
  C 323.59 323.34 322.45 332.70 322.52 338.26
  A 0.50 0.50 0.0 0 0 323.02 338.75
  L 333.48 338.75
  Q 333.93 338.75 333.96 338.30
  Q 334.48 329.77 334.33 321.26
  C 334.07 306.38 310.66 304.03 304.97 315.11
  Q 303.50 317.97 303.49 324.61
  Q 303.48 350.38 303.53 376.13
  C 303.53 381.33 304.15 385.43 308.44 388.06
  Z
  M 519.52 376.66
  C 519.53 389.25 530.35 393.19 541.09 390.13
  C 553.45 386.60 550.30 372.30 550.23 360.21
  A 0.72 0.72 0.0 0 0 549.51 359.50
  L 539.28 359.50
  Q 538.56 359.50 538.56 360.22
  L 538.47 379.29
  A 1.05 1.04 -21.8 0 1 538.14 380.05
  Q 535.48 382.57 531.95 380.98
  A 1.01 0.99 10.6 0 1 531.36 380.14
  Q 531.11 376.41 531.10 374.56
  Q 531.03 348.01 531.27 321.47
  C 531.29 318.95 531.66 318.19 534.23 318.07
  C 537.78 317.90 538.50 318.96 538.50 322.40
  Q 538.49 330.28 538.50 338.01
  A 0.75 0.74 89.6 0 0 539.24 338.75
  L 549.47 338.75
  A 0.76 0.76 0.0 0 0 550.23 337.99
  C 550.42 323.55 553.54 306.08 531.22 308.62
  C 522.26 309.63 519.49 315.17 519.49 323.60
  Q 519.49 350.14 519.52 376.66
  Z
  M 77.98 331.97
  Q 37.01 344.77 24.34 385.70
  A 0.39 0.38 8.8 0 0 24.71 386.20
  L 60.38 386.35
  Q 60.92 386.35 61.14 385.86
  C 62.81 382.04 64.52 377.97 66.88 374.80
  C 77.77 360.13 96.12 354.57 113.18 360.42
  C 124.65 364.36 134.50 373.97 137.83 385.92
  A 0.45 0.45 0.0 0 0 138.26 386.25
  L 174.23 386.25
  A 0.54 0.54 0.0 0 0 174.75 385.56
  Q 171.60 374.26 165.36 364.32
  A 0.74 0.74 0.0 0 1 165.77 363.22
  Q 206.19 350.59 218.93 310.18
  Q 219.30 308.99 218.05 308.99
  L 182.53 308.97
  A 0.34 0.32 -79.8 0 0 182.22 309.20
  C 170.07 346.56 118.19 346.39 105.63 309.45
  Q 105.48 309.00 105.00 309.00
  L 68.99 309.00
  Q 68.45 309.00 68.60 309.51
  Q 71.85 321.10 78.23 331.28
  A 0.47 0.46 65.1 0 1 77.98 331.97
  Z
  M 436.74 349.56
  A 0.41 0.41 0.0 0 1 436.77 348.78
  Q 445.58 346.65 445.65 337.51
  C 445.70 331.39 446.21 321.19 443.99 316.16
  C 441.28 310.02 432.89 308.17 427.03 309.06
  C 412.15 311.34 414.19 325.13 414.53 337.51
  Q 414.55 338.09 415.13 338.10
  L 425.16 338.21
  A 1.14 1.14 0.0 0 0 426.31 337.02
  C 426.17 333.54 424.13 315.38 432.08 318.89
  A 1.21 1.18 1.5 0 1 432.72 319.55
  C 434.71 324.52 433.76 332.63 433.73 338.06
  C 433.70 342.45 430.76 343.66 427.08 344.73
  Q 426.50 344.90 426.50 345.51
  L 426.51 352.63
  A 1.26 1.24 4.3 0 0 427.58 353.86
  Q 430.47 354.28 432.83 355.95
  Q 433.24 356.24 433.36 356.74
  C 434.68 362.27 433.77 371.07 433.68 376.94
  C 433.60 381.95 426.90 382.13 426.62 377.17
  Q 426.11 367.79 426.55 361.11
  Q 426.59 360.50 425.98 360.50
  L 415.26 360.50
  Q 414.64 360.50 414.60 361.12
  C 413.77 375.72 413.06 392.74 434.08 390.12
  C 448.61 388.31 445.51 369.87 445.53 360.00
  C 445.55 354.11 441.47 351.23 436.74 349.56
  Z
  M 282.30 350.33
  A 0.52 0.52 0.0 0 1 281.40 350.06
  L 275.51 310.76
  Q 275.34 309.63 274.20 309.67
  L 264.26 310.04
  A 0.64 0.63 -6.9 0 0 263.66 310.80
  Q 269.41 340.57 275.30 369.55
  C 276.73 376.60 276.38 381.95 274.44 388.44
  A 0.79 0.79 0.0 0 0 275.19 389.46
  L 283.35 389.58
  A 2.02 2.01 5.4 0 0 285.36 387.92
  L 299.22 311.90
  A 1.80 1.80 0.0 0 0 297.40 309.78
  L 289.33 310.00
  A 1.07 1.06 -86.5 0 0 288.30 310.92
  Q 285.60 330.16 282.81 349.01
  Q 282.67 349.92 282.30 350.33
  Z
  M 259.48 323.44
  C 259.17 307.68 239.86 309.80 229.84 309.74
  A 1.05 1.04 0.3 0 0 228.78 310.78
  L 228.60 388.92
  Q 228.60 389.50 229.17 389.50
  L 239.82 389.50
  Q 240.39 389.50 240.38 388.93
  L 240.19 360.03
  Q 240.19 359.36 240.85 359.28
  C 250.71 358.06 259.06 357.03 259.40 344.79
  Q 259.70 334.14 259.48 323.44
  Z
  M 353.04 319.25
  L 365.80 319.25
  A 0.70 0.69 0.4 0 0 366.49 318.58
  L 366.83 310.39
  A 0.69 0.68 0.8 0 0 366.13 309.68
  L 341.18 310.05
  A 0.77 0.77 0.0 0 0 340.42 310.82
  L 340.72 388.95
  Q 340.73 389.51 341.29 389.52
  C 349.76 389.58 365.60 391.83 370.15 381.05
  Q 371.59 377.62 371.53 368.34
  C 371.48 360.89 373.21 349.75 366.16 345.02
  C 362.82 342.78 357.16 342.34 352.86 341.95
  Q 352.30 341.90 352.31 341.33
  L 352.57 319.71
  Q 352.58 319.25 353.04 319.25
  Z
  M 463.54 351.01
  A 0.30 0.30 0.0 0 1 463.84 350.71
  L 469.95 350.76
  A 0.30 0.30 0.0 0 1 470.25 351.06
  L 470.25 389.20
  A 0.30 0.30 0.0 0 0 470.55 389.50
  L 481.64 389.50
  A 0.30 0.30 0.0 0 0 481.94 389.20
  L 481.90 310.03
  A 0.30 0.30 0.0 0 0 481.59 309.73
  L 470.54 310.09
  A 0.30 0.30 0.0 0 0 470.25 310.39
  L 470.25 340.03
  A 0.30 0.30 0.0 0 1 469.97 340.33
  L 463.82 340.74
  A 0.30 0.30 0.0 0 1 463.50 340.44
  L 463.59 310.17
  A 0.30 0.30 0.0 0 0 463.28 309.87
  L 452.22 310.06
  A 0.30 0.30 0.0 0 0 451.93 310.36
  L 451.87 389.16
  A 0.30 0.30 0.0 0 0 452.17 389.46
  L 463.33 389.58
  A 0.30 0.30 0.0 0 0 463.63 389.28
  L 463.54 351.01
  Z
  M 397.32 348.71
  C 399.12 361.39 397.87 375.73 397.69 388.45
  A 1.03 1.03 0.0 0 0 398.72 389.50
  L 407.74 389.50
  Q 408.23 389.50 408.23 389.01
  L 408.29 310.81
  Q 408.29 310.09 407.56 310.08
  L 397.52 309.96
  Q 397.01 309.96 396.91 310.46
  L 388.89 350.47
  A 0.20 0.20 0.0 0 1 388.49 350.46
  C 387.71 345.01 388.24 338.98 388.25 334.64
  Q 388.27 322.59 388.24 310.51
  Q 388.24 310.00 387.74 310.00
  L 379.24 310.00
  Q 377.98 310.00 377.98 311.26
  L 378.05 388.96
  Q 378.05 389.38 378.46 389.39
  L 388.49 389.55
  Q 389.02 389.56 389.12 389.04
  L 397.20 348.71
  Q 397.27 348.36 397.32 348.71
  Z
  M 500.23 320.73
  A 0.43 0.43 0.0 0 1 500.66 320.30
  L 514.26 320.22
  A 0.43 0.43 0.0 0 0 514.69 319.81
  L 515.12 310.45
  A 0.43 0.43 0.0 0 0 514.69 310.00
  L 489.25 310.00
  A 0.43 0.43 0.0 0 0 488.82 310.43
  L 488.59 389.07
  A 0.43 0.43 0.0 0 0 489.02 389.50
  L 514.57 389.50
  A 0.43 0.43 0.0 0 0 515.00 389.07
  L 515.00 379.48
  A 0.43 0.43 0.0 0 0 514.57 379.05
  L 500.68 379.03
  A 0.43 0.43 0.0 0 1 500.25 378.60
  L 500.25 351.18
  A 0.43 0.43 0.0 0 1 500.68 350.75
  L 513.82 350.75
  A 0.43 0.43 0.0 0 0 514.25 350.32
  L 514.25 340.93
  A 0.43 0.43 0.0 0 0 513.82 340.50
  L 500.69 340.50
  A 0.43 0.43 0.0 0 1 500.26 340.07
  L 500.23 320.73
  Z
  M 184.64 410.04
  C 182.48 408.37 179.81 402.01 176.55 404.02
  Q 175.24 404.83 176.23 406.00
  L 181.10 411.75
  A 1.19 1.17 -47.3 0 1 181.15 413.20
  L 175.16 421.42
  A 0.84 0.83 21.0 0 0 175.75 422.74
  C 179.55 423.13 182.09 418.20 184.39 415.70
  Q 184.79 415.26 185.08 415.79
  C 186.17 417.78 190.34 424.63 193.32 422.52
  Q 194.23 421.88 193.57 420.99
  L 188.22 413.84
  A 1.61 1.60 -45.5 0 1 188.21 411.92
  L 193.54 404.64
  Q 193.89 404.17 193.40 403.85
  C 190.12 401.74 186.89 407.19 185.46 409.87
  Q 185.15 410.44 184.64 410.04
  Z
  M 632.68 417.57
  C 635.92 422.83 642.37 423.76 648.04 422.32
  Q 648.50 422.20 648.50 421.73
  L 648.50 419.77
  A 0.56 0.56 0.0 0 0 647.86 419.22
  C 629.27 421.86 635.74 402.44 648.11 407.72
  Q 648.86 408.04 648.77 407.23
  L 648.44 404.25
  Q 648.38 403.74 647.87 403.65
  C 641.97 402.67 634.74 404.20 632.12 410.02
  Q 630.39 413.87 632.68 417.57
  Z
  M 25.67 420.89
  A 1.14 1.14 0.0 0 0 26.72 422.52
  Q 30.33 422.48 31.49 419.03
  A 0.80 0.78 9.2 0 1 32.24 418.50
  L 40.14 418.51
  A 0.84 0.83 78.0 0 1 40.90 419.01
  L 42.37 422.33
  A 0.76 0.76 0.0 0 0 43.11 422.79
  L 45.83 422.65
  A 1.23 1.22 75.6 0 0 46.87 420.89
  L 39.36 405.33
  A 3.53 3.53 0.0 0 0 32.98 405.36
  L 25.67 420.89
  Z
  M 83.21 407.40
  A 0.79 0.79 0.0 0 1 83.97 408.18
  L 84.07 421.87
  A 0.79 0.79 0.0 0 0 84.90 422.65
  L 87.74 422.53
  A 0.79 0.79 0.0 0 0 88.50 421.74
  L 88.51 407.61
  A 0.79 0.79 0.0 0 1 89.44 406.83
  L 93.39 407.57
  A 0.79 0.79 0.0 0 0 94.30 406.98
  L 94.95 404.43
  A 0.79 0.79 0.0 0 0 94.17 403.44
  L 78.03 403.82
  A 0.79 0.79 0.0 0 0 77.26 404.60
  L 77.25 406.39
  A 0.79 0.79 0.0 0 0 78.00 407.18
  L 83.21 407.40
  Z
  M 123.2196 413.1136
  A 11.05 9.81 -0.5 0 0 112.0844 403.4004
  A 11.05 9.81 -0.5 0 0 101.1204 413.3064
  A 11.05 9.81 -0.5 0 0 112.2556 423.0196
  A 11.05 9.81 -0.5 0 0 123.2196 413.1136
  Z
  M 130.30 407.23
  C 132.46 407.21 136.52 406.42 136.33 410.00
  Q 136.00 415.98 136.09 421.96
  Q 136.10 422.54 136.68 422.52
  L 139.85 422.41
  A 0.73 0.73 0.0 0 0 140.56 421.66
  L 140.21 408.19
  A 0.67 0.66 89.6 0 1 140.87 407.51
  L 146.03 407.50
  Q 146.62 407.49 146.59 406.91
  L 146.47 404.18
  Q 146.45 403.66 145.93 403.66
  L 130.16 403.56
  Q 129.56 403.55 129.57 404.15
  L 129.61 406.55
  Q 129.61 407.24 130.30 407.23
  Z
  M 216.25 410.42
  A 0.70 0.70 0.0 0 1 215.54 411.11
  L 207.46 410.94
  A 0.70 0.70 0.0 0 1 206.77 410.22
  L 206.94 404.47
  A 0.70 0.70 0.0 0 0 206.23 403.74
  L 202.95 403.77
  A 0.70 0.70 0.0 0 0 202.25 404.47
  L 202.25 422.04
  A 0.70 0.70 0.0 0 0 203.02 422.74
  L 206.11 422.42
  A 0.70 0.70 0.0 0 0 206.74 421.72
  L 206.76 415.70
  A 0.70 0.70 0.0 0 1 207.46 415.00
  L 215.63 415.00
  A 0.70 0.70 0.0 0 1 216.33 415.75
  L 215.86 421.81
  A 0.70 0.70 0.0 0 0 216.62 422.56
  L 220.11 422.23
  A 0.70 0.70 0.0 0 0 220.75 421.52
  L 220.41 404.36
  A 0.70 0.70 0.0 0 0 219.71 403.67
  L 216.94 403.69
  A 0.70 0.70 0.0 0 0 216.25 404.39
  L 216.25 410.42
  Z
  M 244.11 410.73
  L 243.95 422.03
  Q 243.94 422.81 244.72 422.76
  L 248.12 422.53
  Q 248.76 422.49 248.76 421.85
  C 248.75 416.57 249.56 409.02 248.30 404.02
  Q 248.12 403.31 247.40 403.41
  L 243.65 403.91
  Q 243.06 403.99 242.74 404.48
  L 235.29 415.80
  A 0.59 0.59 0.0 0 1 234.21 415.50
  L 233.77 403.97
  A 0.50 0.49 85.7 0 0 233.22 403.49
  L 229.88 403.83
  Q 229.38 403.88 229.38 404.38
  L 229.22 421.69
  A 1.14 1.13 -1.9 0 0 230.44 422.83
  L 234.55 422.51
  Q 235.09 422.47 235.40 422.03
  Q 238.89 417.08 241.81 411.82
  Q 242.33 410.90 243.77 410.47
  Q 244.11 410.37 244.11 410.73
  Z
  M 262.20 410.67
  L 261.81 404.38
  A 0.61 0.61 0.0 0 0 261.21 403.80
  L 258.02 403.73
  Q 257.50 403.71 257.50 404.23
  L 257.50 421.93
  Q 257.50 422.62 258.18 422.64
  L 261.30 422.74
  A 0.71 0.70 89.6 0 0 262.03 421.99
  L 261.73 416.28
  A 1.21 1.21 0.0 0 1 263.73 415.31
  C 266.95 418.16 270.01 424.95 275.19 421.95
  A 0.49 0.49 0.0 0 0 275.28 421.17
  C 272.41 418.46 269.70 416.38 266.95 412.63
  Q 266.63 412.19 267.03 411.81
  L 274.34 404.84
  A 0.60 0.60 0.0 0 0 274.19 403.86
  C 270.52 402.06 265.45 408.76 263.01 410.99
  A 0.48 0.48 0.0 0 1 262.20 410.67
  Z
  M 337.11 420.15
  C 340.33 423.05 346.44 423.11 350.59 422.44
  Q 351.00 422.37 351.00 421.95
  L 351.00 419.51
  Q 351.00 418.83 350.34 419.00
  C 335.12 422.96 334.87 404.20 350.59 407.27
  A 0.56 0.55 1.5 0 0 351.25 406.65
  L 350.94 404.45
  Q 350.86 403.88 350.30 403.77
  Q 343.37 402.39 338.23 405.86
  C 332.99 409.39 332.32 415.84 337.11 420.15
  Z
  M 404.80 422.52
  C 409.46 422.32 419.29 424.27 419.54 417.16
  C 419.61 415.17 418.18 413.96 416.90 412.60
  A 0.63 0.63 0.0 0 1 416.91 411.73
  L 418.52 410.08
  A 1.04 1.03 -24.4 0 0 418.80 409.35
  C 418.61 402.58 409.65 403.38 404.78 403.68
  Q 404.16 403.72 404.16 404.34
  L 404.14 421.88
  Q 404.14 422.54 404.80 422.52
  Z
  M 443.50 410.56
  L 443.42 421.25
  A 1.28 1.27 -1.5 0 0 444.77 422.53
  L 447.05 422.40
  Q 447.70 422.36 447.71 421.71
  L 447.89 404.94
  Q 447.90 404.40 447.43 404.14
  C 445.18 402.90 443.04 403.27 441.45 405.44
  Q 437.67 410.61 434.18 416.45
  A 0.73 0.73 0.0 0 1 432.83 416.05
  L 433.15 404.68
  Q 433.16 404.30 432.83 404.09
  C 430.17 402.39 428.74 403.58 428.75 406.48
  Q 428.75 414.10 428.75 421.79
  Q 428.75 422.32 429.26 422.47
  C 432.82 423.58 434.63 421.98 436.49 418.90
  Q 439.24 414.36 442.59 410.23
  A 0.51 0.51 0.0 0 1 443.50 410.56
  Z
  M 458.44 419.31
  Q 464.53 424.53 472.45 422.17
  Q 473.00 422.01 473.00 421.44
  L 473.00 419.51
  A 0.57 0.57 0.0 0 0 472.23 418.97
  C 466.82 421.00 459.11 418.92 461.14 411.56
  C 462.61 406.20 468.61 406.84 472.91 407.03
  Q 473.60 407.06 473.48 406.38
  L 473.14 404.46
  Q 473.03 403.86 472.44 403.76
  C 467.30 402.89 460.54 403.85 457.56 408.39
  C 455.80 411.07 455.33 416.65 458.44 419.31
  Z
  M 556.34 407.50
  A 0.76 0.76 0.0 0 1 557.14 406.76
  L 564.03 407.10
  A 0.76 0.76 0.0 0 1 564.75 407.86
  L 564.75 421.72
  A 0.76 0.76 0.0 0 0 565.52 422.48
  L 568.25 422.42
  A 0.76 0.76 0.0 0 0 569.00 421.66
  L 569.00 404.45
  A 0.76 0.76 0.0 0 0 568.25 403.69
  L 552.27 403.58
  A 0.76 0.76 0.0 0 0 551.50 404.34
  L 551.50 422.04
  A 0.76 0.76 0.0 0 0 552.32 422.79
  L 555.33 422.55
  A 0.76 0.76 0.0 0 0 556.03 421.81
  L 556.34 407.50
  Z
  M 660.73 407.33
  A 0.79 0.79 0.0 0 1 661.50 408.12
  L 661.50 421.97
  A 0.79 0.79 0.0 0 0 662.31 422.76
  L 665.19 422.71
  A 0.79 0.79 0.0 0 0 665.96 421.93
  L 666.22 407.70
  A 0.79 0.79 0.0 0 1 667.08 406.93
  L 671.58 407.30
  A 0.79 0.79 0.0 0 0 672.43 406.58
  L 672.60 404.35
  A 0.79 0.79 0.0 0 0 671.80 403.50
  L 655.88 403.84
  A 0.79 0.79 0.0 0 0 655.11 404.55
  L 654.94 406.34
  A 0.79 0.79 0.0 0 0 655.71 407.20
  L 660.73 407.33
  Z
  M 694.50 411.76
  L 694.50 421.72
  Q 694.50 422.11 694.85 422.30
  Q 696.47 423.17 698.20 422.54
  Q 698.75 422.33 698.75 421.75
  L 698.75 404.84
  A 1.35 1.34 2.6 0 0 697.52 403.50
  C 694.84 403.27 693.42 404.15 691.89 406.43
  Q 688.44 411.59 685.04 416.62
  A 0.49 0.49 0.0 0 1 684.15 416.35
  L 683.99 404.49
  Q 683.97 403.59 683.07 403.56
  L 680.33 403.48
  Q 679.62 403.45 679.61 404.17
  L 679.45 421.72
  Q 679.45 422.35 680.04 422.53
  C 686.31 424.43 689.94 415.82 692.64 411.25
  Q 694.50 408.09 694.50 411.76
  Z
  M 55.00 422.31
  C 59.93 423.12 70.01 423.86 70.88 416.90
  A 1.06 1.02 28.0 0 0 70.60 416.04
  L 67.78 413.05
  A 0.69 0.68 45.3 0 1 67.78 412.10
  Q 69.21 410.64 69.33 408.69
  C 69.72 402.47 59.08 403.60 55.28 404.15
  Q 54.75 404.23 54.75 404.77
  L 54.75 422.02
  A 0.30 0.29 4.6 0 0 55.00 422.31
  Z
  M 158.96 418.59
  L 158.37 415.91
  A 0.75 0.75 0.0 0 1 159.06 415.00
  L 165.44 414.65
  Q 166.00 414.62 166.16 414.08
  Q 166.58 412.71 165.84 411.53
  Q 165.61 411.17 165.19 411.19
  L 159.31 411.56
  Q 158.49 411.61 158.53 410.79
  L 158.67 407.97
  A 0.76 0.75 1.2 0 1 159.43 407.25
  L 166.29 407.25
  A 0.74 0.73 -86.5 0 0 167.02 406.60
  L 167.30 404.49
  Q 167.40 403.75 166.66 403.75
  L 154.71 403.75
  Q 154.17 403.75 154.16 404.29
  L 154.05 422.02
  Q 154.05 422.68 154.71 422.68
  L 166.72 422.67
  Q 167.37 422.67 167.31 422.02
  L 167.12 420.05
  A 0.82 0.81 87.6 0 0 166.32 419.31
  L 159.73 419.22
  Q 159.09 419.21 158.96 418.59
  Z
  M 288.47 418.52
  C 292.63 418.44 298.21 416.88 299.44 422.42
  Q 299.58 423.03 300.19 422.94
  L 303.17 422.52
  Q 304.08 422.40 303.69 421.56
  L 296.21 405.51
  A 3.72 3.71 45.1 0 0 289.48 405.50
  L 282.31 420.84
  A 1.36 1.35 12.1 0 0 283.56 422.76
  L 285.29 422.73
  Q 285.93 422.72 286.21 422.14
  L 287.68 419.03
  Q 287.92 418.53 288.47 418.52
  Z
  M 363.95 408.13
  A 0.74 0.74 0.0 0 1 364.67 407.32
  L 371.78 407.18
  A 0.74 0.74 0.0 0 0 372.50 406.44
  L 372.50 404.49
  A 0.74 0.74 0.0 0 0 371.76 403.75
  L 360.17 403.75
  A 0.74 0.74 0.0 0 0 359.43 404.48
  L 359.21 421.84
  A 0.74 0.74 0.0 0 0 359.94 422.59
  L 372.03 422.67
  A 0.74 0.74 0.0 0 0 372.75 421.75
  L 372.26 419.81
  A 0.74 0.74 0.0 0 0 371.54 419.25
  L 365.10 419.25
  A 0.74 0.74 0.0 0 1 364.37 418.64
  L 363.90 415.90
  A 0.74 0.74 0.0 0 1 364.59 415.03
  L 370.80 414.69
  A 0.74 0.74 0.0 0 0 371.50 413.95
  L 371.50 411.99
  A 0.74 0.74 0.0 0 0 370.76 411.25
  L 364.89 411.25
  A 0.74 0.74 0.0 0 1 364.15 410.57
  L 363.95 408.13
  Z
  M 381.85 422.63
  L 384.80 422.40
  A 0.69 0.68 -1.4 0 0 385.43 421.74
  L 385.63 416.34
  Q 385.65 415.82 386.18 415.77
  C 388.92 415.54 391.94 415.51 394.08 413.83
  C 397.36 411.27 396.86 407.00 393.21 405.08
  C 389.94 403.36 386.14 403.52 381.84 403.86
  Q 381.25 403.91 381.25 404.50
  L 381.25 422.08
  A 0.55 0.55 0.0 0 0 381.85 422.63
  Z
  M 511.68 411.78
  Q 515.07 409.26 512.63 405.53
  Q 512.40 405.17 512.00 405.00
  Q 506.29 402.67 501.04 403.92
  Q 498.70 404.48 499.98 407.06
  Q 500.21 407.52 500.70 407.35
  Q 504.43 406.07 508.17 407.36
  A 1.74 1.74 0.0 0 1 507.81 410.73
  L 503.06 411.31
  A 1.43 1.43 0.0 0 0 502.97 414.13
  L 508.55 415.19
  Q 508.97 415.27 509.13 415.67
  C 511.33 421.34 502.94 420.09 500.11 418.51
  A 0.40 0.40 0.0 0 0 499.52 418.86
  L 499.49 421.69
  Q 499.49 422.18 499.97 422.28
  Q 506.09 423.59 511.74 421.49
  C 516.46 419.74 514.27 414.95 511.64 412.52
  Q 511.21 412.13 511.68 411.78
  Z
  M 528.44 418.53
  C 531.69 418.44 538.05 417.34 538.86 421.65
  A 1.28 1.26 9.4 0 0 539.49 422.52
  Q 541.00 423.37 542.68 422.73
  Q 543.99 422.24 543.39 420.98
  L 536.07 405.51
  A 3.71 3.71 0.0 0 0 529.35 405.54
  L 521.95 421.55
  A 0.68 0.67 -65.3 0 0 522.28 422.45
  Q 523.80 423.13 525.42 422.55
  A 1.24 1.23 4.0 0 0 526.07 421.99
  L 527.64 419.03
  Q 527.89 418.54 528.44 418.53
  Z
  M 590.13 413.14
  C 587.08 413.41 581.28 413.69 581.71 409.75
  Q 582.01 406.96 581.83 404.78
  A 0.87 0.85 -78.3 0 0 581.39 404.10
  C 579.02 402.81 577.56 403.80 577.43 406.41
  C 576.91 416.58 582.19 416.48 590.26 416.53
  A 0.49 0.49 0.0 0 1 590.75 417.02
  L 590.75 421.61
  Q 590.75 422.21 591.35 422.29
  L 593.49 422.54
  A 1.33 1.32 3.5 0 0 594.97 421.24
  L 595.07 404.72
  Q 595.07 404.14 594.50 404.06
  L 591.54 403.68
  Q 590.84 403.59 590.82 404.29
  L 590.59 412.64
  Q 590.58 413.09 590.13 413.14
  Z
  M 603.05 422.29
  C 607.27 423.59 607.10 421.16 608.93 418.72
  A 0.94 0.94 0.0 0 1 609.69 418.36
  L 617.60 418.56
  A 0.90 0.88 -16.8 0 1 618.27 418.91
  C 619.95 421.18 620.06 423.63 623.64 422.62
  Q 624.94 422.25 624.36 421.03
  L 616.49 404.52
  A 0.92 0.91 87.4 0 0 615.98 404.05
  C 612.81 402.92 611.17 404.09 609.74 406.97
  Q 606.06 414.40 602.87 421.90
  Q 602.74 422.19 603.05 422.29
  Z
  M 321.0267 413.6534
  A 5.45 4.57 5.3 0 0 316.0221 408.5995
  A 5.45 4.57 5.3 0 0 310.1733 412.6466
  A 5.45 4.57 5.3 0 0 315.1779 417.7005
  A 5.45 4.57 5.3 0 0 321.0267 413.6534
  Z
  M 492.2057 413.0677
  A 5.29 4.69 -2.3 0 0 486.7318 408.5938
  A 5.29 4.69 -2.3 0 0 481.6343 413.4923
  A 5.29 4.69 -2.3 0 0 487.1082 417.9662
  A 5.29 4.69 -2.3 0 0 492.2057 413.0677
  Z"
/>
<path fill="#15364e" d="
  M 644.61 389.57
  L 649.97 389.51
  Q 651.50 389.49 651.50 387.96
  L 651.50 321.24
  Q 651.50 320.47 652.26 320.43
  L 660.21 320.04
  A 1.06 1.05 20.4 0 0 660.92 319.72
  C 662.36 318.28 661.75 313.14 661.41 311.40
  A 1.75 1.75 0.0 0 0 659.69 309.98
  L 630.42 310.04
  Q 629.63 310.04 629.62 310.83
  L 629.45 318.96
  Q 629.43 319.74 630.21 319.77
  L 639.29 320.08
  A 0.45 0.45 0.0 0 1 639.72 320.53
  L 639.63 389.68
  C 633.18 389.45 635.72 381.64 630.33 381.82
  Q 629.78 381.84 629.39 382.23
  Q 627.68 383.90 623.09 388.56
  C 616.46 395.29 604.17 394.58 595.15 392.62
  Q 592.12 391.96 589.39 392.21
  C 586.55 392.48 584.64 392.88 581.62 392.17
  C 574.64 390.53 569.85 394.74 563.03 389.28
  Q 564.90 389.55 565.04 388.07
  Q 565.93 378.32 567.39 368.53
  Q 567.47 368.00 568.00 368.00
  L 575.53 368.00
  A 0.65 0.64 -2.4 0 1 576.18 368.59
  L 577.99 388.29
  A 1.05 1.05 0.0 0 0 579.04 389.25
  L 589.49 389.25
  Q 589.98 389.25 589.92 388.77
  L 581.02 310.72
  A 0.97 0.97 0.0 0 0 580.03 309.86
  L 564.33 310.22
  L 566.86 307.11
  Q 567.18 306.71 567.68 306.61
  C 575.60 305.04 582.12 305.02 587.13 311.89
  A 0.99 0.99 0.0 0 0 588.71 311.91
  L 592.23 307.35
  Q 592.55 306.94 593.06 306.84
  Q 606.86 304.17 621.48 307.29
  Q 625.26 308.10 628.98 306.63
  C 632.33 305.30 635.73 305.73 639.20 305.17
  C 647.82 303.76 656.76 306.19 665.39 306.88
  Q 667.33 307.03 669.46 306.21
  C 674.77 304.14 680.27 303.16 685.97 304.52
  C 688.70 305.17 691.65 305.67 693.98 306.77
  C 704.20 311.55 701.28 322.61 701.25 331.66
  Q 701.17 352.26 701.46 372.86
  Q 701.57 380.79 700.40 384.00
  C 697.42 392.21 689.74 395.51 681.36 393.41
  Q 679.85 393.04 677.59 393.00
  C 674.99 392.96 671.53 391.34 669.53 390.15
  C 667.50 388.96 666.68 386.72 665.00 385.53
  Q 659.26 381.43 655.06 387.78
  C 654.45 388.71 653.34 389.07 652.58 389.95
  Q 647.72 395.59 644.61 389.57
  Z
  M 697.70 321.58
  A 13.16 13.16 0.0 0 0 684.54 308.42
  L 679.80 308.42
  A 13.16 13.16 0.0 0 0 666.64 321.58
  L 666.64 377.74
  A 13.16 13.16 0.0 0 0 679.80 390.90
  L 684.54 390.90
  A 13.16 13.16 0.0 0 0 697.70 377.74
  L 697.70 321.58
  Z
  M 616.13 348.09
  A 0.91 0.91 0.0 0 1 616.15 346.30
  C 627.07 344.36 624.58 332.50 624.44 324.00
  C 624.14 306.24 606.32 309.99 594.97 310.00
  Q 594.43 310.00 594.38 310.54
  Q 594.02 314.39 594.01 318.26
  Q 593.96 353.38 594.02 388.56
  Q 594.02 389.06 594.53 389.10
  C 604.13 389.85 616.94 391.53 622.30 383.32
  C 626.05 377.58 625.27 365.76 624.83 358.99
  C 624.46 353.17 621.86 349.22 616.13 348.09
  Z"
/>
<path fill="#d7843b" d="
  M 697.70 377.74
  A 13.16 13.16 0.0 0 1 684.54 390.90
  L 679.80 390.90
  A 13.16 13.16 0.0 0 1 666.64 377.74
  L 666.64 321.58
  A 13.16 13.16 0.0 0 1 679.80 308.42
  L 684.54 308.42
  A 13.16 13.16 0.0 0 1 697.70 321.58
  L 697.70 377.74
  Z
  M 685.69 321.31
  A 3.52 3.52 0.0 0 0 682.17 317.79
  L 682.07 317.79
  A 3.52 3.52 0.0 0 0 678.55 321.31
  L 678.55 377.93
  A 3.52 3.52 0.0 0 0 682.07 381.45
  L 682.17 381.45
  A 3.52 3.52 0.0 0 0 685.69 377.93
  L 685.69 321.31
  Z"
/>
<path fill="#f7ffff" d="
  M 308.44 388.06
  C 304.15 385.43 303.53 381.33 303.53 376.13
  Q 303.48 350.38 303.49 324.61
  Q 303.50 317.97 304.97 315.11
  C 310.66 304.03 334.07 306.38 334.33 321.26
  Q 334.48 329.77 333.96 338.30
  Q 333.93 338.75 333.48 338.75
  L 323.02 338.75
  A 0.50 0.50 0.0 0 1 322.52 338.26
  C 322.45 332.70 323.59 323.34 321.41 318.43
  A 0.81 0.81 0.0 0 0 320.66 317.96
  L 316.85 318.08
  Q 316.19 318.11 315.95 318.73
  Q 315.12 320.85 315.12 323.00
  Q 315.15 350.33 315.29 377.66
  C 315.32 383.39 322.50 382.73 322.50 377.55
  Q 322.50 368.80 322.50 360.01
  A 0.52 0.51 0.0 0 1 323.02 359.50
  L 333.48 359.50
  Q 333.98 359.50 334.01 360.00
  Q 334.34 366.54 334.24 373.02
  C 334.10 381.10 334.02 386.91 326.03 389.82
  Q 316.79 393.19 308.44 388.06
  Z"
/>
<path fill="#f7ffff" d="
  M 541.09 390.13
  C 530.35 393.19 519.53 389.25 519.52 376.66
  Q 519.49 350.14 519.49 323.60
  C 519.49 315.17 522.26 309.63 531.22 308.62
  C 553.54 306.08 550.42 323.55 550.23 337.99
  A 0.76 0.76 0.0 0 1 549.47 338.75
  L 539.24 338.75
  A 0.75 0.74 89.6 0 1 538.50 338.01
  Q 538.49 330.28 538.50 322.40
  C 538.50 318.96 537.78 317.90 534.23 318.07
  C 531.66 318.19 531.29 318.95 531.27 321.47
  Q 531.03 348.01 531.10 374.56
  Q 531.11 376.41 531.36 380.14
  A 1.01 0.99 10.6 0 0 531.95 380.98
  Q 535.48 382.57 538.14 380.05
  A 1.05 1.04 -21.8 0 0 538.47 379.29
  L 538.56 360.22
  Q 538.56 359.50 539.28 359.50
  L 549.51 359.50
  A 0.72 0.72 0.0 0 1 550.23 360.21
  C 550.30 372.30 553.45 386.60 541.09 390.13
  Z"
/>
<path fill="#f7ffff" d="
  M 77.98 331.97
  A 0.47 0.46 65.1 0 0 78.23 331.28
  Q 71.85 321.10 68.60 309.51
  Q 68.45 309.00 68.99 309.00
  L 105.00 309.00
  Q 105.48 309.00 105.63 309.45
  C 118.19 346.39 170.07 346.56 182.22 309.20
  A 0.34 0.32 -79.8 0 1 182.53 308.97
  L 218.05 308.99
  Q 219.30 308.99 218.93 310.18
  Q 206.19 350.59 165.77 363.22
  A 0.74 0.74 0.0 0 0 165.36 364.32
  Q 171.60 374.26 174.75 385.56
  A 0.54 0.54 0.0 0 1 174.23 386.25
  L 138.26 386.25
  A 0.45 0.45 0.0 0 1 137.83 385.92
  C 134.50 373.97 124.65 364.36 113.18 360.42
  C 96.12 354.57 77.77 360.13 66.88 374.80
  C 64.52 377.97 62.81 382.04 61.14 385.86
  Q 60.92 386.35 60.38 386.35
  L 24.71 386.20
  A 0.39 0.38 8.8 0 1 24.34 385.70
  Q 37.01 344.77 77.98 331.97
  Z"
/>
<path fill="#f7ffff" d="
  M 436.74 349.56
  C 441.47 351.23 445.55 354.11 445.53 360.00
  C 445.51 369.87 448.61 388.31 434.08 390.12
  C 413.06 392.74 413.77 375.72 414.60 361.12
  Q 414.64 360.50 415.26 360.50
  L 425.98 360.50
  Q 426.59 360.50 426.55 361.11
  Q 426.11 367.79 426.62 377.17
  C 426.90 382.13 433.60 381.95 433.68 376.94
  C 433.77 371.07 434.68 362.27 433.36 356.74
  Q 433.24 356.24 432.83 355.95
  Q 430.47 354.28 427.58 353.86
  A 1.26 1.24 4.3 0 1 426.51 352.63
  L 426.50 345.51
  Q 426.50 344.90 427.08 344.73
  C 430.76 343.66 433.70 342.45 433.73 338.06
  C 433.76 332.63 434.71 324.52 432.72 319.55
  A 1.21 1.18 1.5 0 0 432.08 318.89
  C 424.13 315.38 426.17 333.54 426.31 337.02
  A 1.14 1.14 0.0 0 1 425.16 338.21
  L 415.13 338.10
  Q 414.55 338.09 414.53 337.51
  C 414.19 325.13 412.15 311.34 427.03 309.06
  C 432.89 308.17 441.28 310.02 443.99 316.16
  C 446.21 321.19 445.70 331.39 445.65 337.51
  Q 445.58 346.65 436.77 348.78
  A 0.41 0.41 0.0 0 0 436.74 349.56
  Z"
/>
<path fill="#f7ffff" d="
  M 282.30 350.33
  Q 282.67 349.92 282.81 349.01
  Q 285.60 330.16 288.30 310.92
  A 1.07 1.06 -86.5 0 1 289.33 310.00
  L 297.40 309.78
  A 1.80 1.80 0.0 0 1 299.22 311.90
  L 285.36 387.92
  A 2.02 2.01 5.4 0 1 283.35 389.58
  L 275.19 389.46
  A 0.79 0.79 0.0 0 1 274.44 388.44
  C 276.38 381.95 276.73 376.60 275.30 369.55
  Q 269.41 340.57 263.66 310.80
  A 0.64 0.63 -6.9 0 1 264.26 310.04
  L 274.20 309.67
  Q 275.34 309.63 275.51 310.76
  L 281.40 350.06
  A 0.52 0.52 0.0 0 0 282.30 350.33
  Z"
/>
<path fill="#f7ffff" d="
  M 229.84 309.74
  C 239.86 309.80 259.17 307.68 259.48 323.44
  Q 259.70 334.14 259.40 344.79
  C 259.06 357.03 250.71 358.06 240.85 359.28
  Q 240.19 359.36 240.19 360.03
  L 240.38 388.93
  Q 240.39 389.50 239.82 389.50
  L 229.17 389.50
  Q 228.60 389.50 228.60 388.92
  L 228.78 310.78
  A 1.05 1.04 0.3 0 1 229.84 309.74
  Z
  M 240.50 319.74
  L 240.50 349.04
  A 0.30 0.30 0.0 0 0 240.80 349.34
  L 242.83 349.34
  A 4.93 4.40 0.0 0 0 247.76 344.94
  L 247.76 323.84
  A 4.93 4.40 0.0 0 0 242.83 319.44
  L 240.80 319.44
  A 0.30 0.30 0.0 0 0 240.50 319.74
  Z"
/>
<path fill="#f7ffff" d="
  M 352.57 319.71
  L 352.31 341.33
  Q 352.30 341.90 352.86 341.95
  C 357.16 342.34 362.82 342.78 366.16 345.02
  C 373.21 349.75 371.48 360.89 371.53 368.34
  Q 371.59 377.62 370.15 381.05
  C 365.60 391.83 349.76 389.58 341.29 389.52
  Q 340.73 389.51 340.72 388.95
  L 340.42 310.82
  A 0.77 0.77 0.0 0 1 341.18 310.05
  L 366.13 309.68
  A 0.69 0.68 0.8 0 1 366.83 310.39
  L 366.49 318.58
  A 0.70 0.69 0.4 0 1 365.80 319.25
  L 353.04 319.25
  Q 352.58 319.25 352.57 319.71
  Z
  M 352.27 352.18
  L 352.47 379.52
  A 0.44 0.44 0.0 0 0 352.91 379.95
  L 354.94 379.94
  A 5.01 4.89 -0.4 0 0 359.91 375.01
  L 359.79 356.57
  A 5.01 4.89 -0.4 0 0 354.74 351.72
  L 352.71 351.73
  A 0.44 0.44 0.0 0 0 352.27 352.18
  Z"
/>
<path fill="#f7ffff" d="
  M 463.54 351.01
  L 463.63 389.28
  A 0.30 0.30 0.0 0 1 463.33 389.58
  L 452.17 389.46
  A 0.30 0.30 0.0 0 1 451.87 389.16
  L 451.93 310.36
  A 0.30 0.30 0.0 0 1 452.22 310.06
  L 463.28 309.87
  A 0.30 0.30 0.0 0 1 463.59 310.17
  L 463.50 340.44
  A 0.30 0.30 0.0 0 0 463.82 340.74
  L 469.97 340.33
  A 0.30 0.30 0.0 0 0 470.25 340.03
  L 470.25 310.39
  A 0.30 0.30 0.0 0 1 470.54 310.09
  L 481.59 309.73
  A 0.30 0.30 0.0 0 1 481.90 310.03
  L 481.94 389.20
  A 0.30 0.30 0.0 0 1 481.64 389.50
  L 470.55 389.50
  A 0.30 0.30 0.0 0 1 470.25 389.20
  L 470.25 351.06
  A 0.30 0.30 0.0 0 0 469.95 350.76
  L 463.84 350.71
  A 0.30 0.30 0.0 0 0 463.54 351.01
  Z"
/>
<path fill="#d7843b" d="
  M 563.03 389.28
  L 555.71 389.52
  Q 554.18 389.57 554.36 388.04
  Q 558.75 350.74 562.62 314.94
  Q 562.98 311.53 564.33 310.22
  L 580.03 309.86
  A 0.97 0.97 0.0 0 1 581.02 310.72
  L 589.92 388.77
  Q 589.98 389.25 589.49 389.25
  L 579.04 389.25
  A 1.05 1.05 0.0 0 1 577.99 388.29
  L 576.18 368.59
  A 0.65 0.64 -2.4 0 0 575.53 368.00
  L 568.00 368.00
  Q 567.47 368.00 567.39 368.53
  Q 565.93 378.32 565.04 388.07
  Q 564.90 389.55 563.03 389.28
  Z
  M 569.18 357.46
  C 570.45 357.87 572.54 357.99 573.66 357.20
  A 0.90 0.89 -22.1 0 0 574.03 356.34
  C 573.86 355.18 574.23 354.06 574.19 353.08
  Q 573.69 339.07 572.18 325.23
  A 0.33 0.33 0.0 0 0 571.52 325.23
  L 568.62 356.60
  Q 568.56 357.26 569.18 357.46
  Z"
/>
<path fill="#f7ffff" d="
  M 397.20 348.71
  L 389.12 389.04
  Q 389.02 389.56 388.49 389.55
  L 378.46 389.39
  Q 378.05 389.38 378.05 388.96
  L 377.98 311.26
  Q 377.98 310.00 379.24 310.00
  L 387.74 310.00
  Q 388.24 310.00 388.24 310.51
  Q 388.27 322.59 388.25 334.64
  C 388.24 338.98 387.71 345.01 388.49 350.46
  A 0.20 0.20 0.0 0 0 388.89 350.47
  L 396.91 310.46
  Q 397.01 309.96 397.52 309.96
  L 407.56 310.08
  Q 408.29 310.09 408.29 310.81
  L 408.23 389.01
  Q 408.23 389.50 407.74 389.50
  L 398.72 389.50
  A 1.03 1.03 0.0 0 1 397.69 388.45
  C 397.87 375.73 399.12 361.39 397.32 348.71
  Q 397.27 348.36 397.20 348.71
  Z"
/>
<path fill="#f7ffff" d="
  M 500.23 320.73
  L 500.26 340.07
  A 0.43 0.43 0.0 0 0 500.69 340.50
  L 513.82 340.50
  A 0.43 0.43 0.0 0 1 514.25 340.93
  L 514.25 350.32
  A 0.43 0.43 0.0 0 1 513.82 350.75
  L 500.68 350.75
  A 0.43 0.43 0.0 0 0 500.25 351.18
  L 500.25 378.60
  A 0.43 0.43 0.0 0 0 500.68 379.03
  L 514.57 379.05
  A 0.43 0.43 0.0 0 1 515.00 379.48
  L 515.00 389.07
  A 0.43 0.43 0.0 0 1 514.57 389.50
  L 489.02 389.50
  A 0.43 0.43 0.0 0 1 488.59 389.07
  L 488.82 310.43
  A 0.43 0.43 0.0 0 1 489.25 310.00
  L 514.69 310.00
  A 0.43 0.43 0.0 0 1 515.12 310.45
  L 514.69 319.81
  A 0.43 0.43 0.0 0 1 514.26 320.22
  L 500.66 320.30
  A 0.43 0.43 0.0 0 0 500.23 320.73
  Z"
/>
<path fill="#d7843b" d="
  M 616.13 348.09
  C 621.86 349.22 624.46 353.17 624.83 358.99
  C 625.27 365.76 626.05 377.58 622.30 383.32
  C 616.94 391.53 604.13 389.85 594.53 389.10
  Q 594.02 389.06 594.02 388.56
  Q 593.96 353.38 594.01 318.26
  Q 594.02 314.39 594.38 310.54
  Q 594.43 310.00 594.97 310.00
  C 606.32 309.99 624.14 306.24 624.44 324.00
  C 624.58 332.50 627.07 344.36 616.15 346.30
  A 0.91 0.91 0.0 0 0 616.13 348.09
  Z
  M 605.69 320.50
  L 605.79 341.32
  A 1.49 1.49 0.0 0 0 607.29 342.80
  L 608.77 342.79
  A 6.30 4.25 89.7 0 0 612.99 336.47
  L 612.93 325.27
  A 6.30 4.25 89.7 0 0 608.65 318.99
  L 607.17 319.00
  A 1.49 1.49 0.0 0 0 605.69 320.50
  Z
  M 605.87 353.60
  L 605.79 379.04
  A 1.18 1.18 0.0 0 0 606.96 380.22
  L 607.92 380.22
  A 5.42 5.06 -89.8 0 0 613.00 374.82
  L 613.06 357.86
  A 5.42 5.06 -89.8 0 0 608.02 352.42
  L 607.06 352.42
  A 1.18 1.18 0.0 0 0 605.87 353.60
  Z"
/>
<path fill="#d7843b" d="
  M 644.61 389.57
  L 639.63 389.68
  L 639.72 320.53
  A 0.45 0.45 0.0 0 0 639.29 320.08
  L 630.21 319.77
  Q 629.43 319.74 629.45 318.96
  L 629.62 310.83
  Q 629.63 310.04 630.42 310.04
  L 659.69 309.98
  A 1.75 1.75 0.0 0 1 661.41 311.40
  C 661.75 313.14 662.36 318.28 660.92 319.72
  A 1.06 1.05 20.4 0 1 660.21 320.04
  L 652.26 320.43
  Q 651.50 320.47 651.50 321.24
  L 651.50 387.96
  Q 651.50 389.49 649.97 389.51
  L 644.61 389.57
  Z"
/>
<rect fill="#292b28" x="678.55" y="317.79" width="7.14" height="63.66" rx="3.52"/>
<path fill="#292b28" d="
  M 605.69 320.50
  A 1.49 1.49 0.0 0 1 607.17 319.00
  L 608.65 318.99
  A 6.30 4.25 89.7 0 1 612.93 325.27
  L 612.99 336.47
  A 6.30 4.25 89.7 0 1 608.77 342.79
  L 607.29 342.80
  A 1.49 1.49 0.0 0 1 605.79 341.32
  L 605.69 320.50
  Z"
/>
<path fill="#003a68" d="
  M 240.50 319.74
  A 0.30 0.30 0.0 0 1 240.80 319.44
  L 242.83 319.44
  A 4.93 4.40 -0.0 0 1 247.76 323.84
  L 247.76 344.94
  A 4.93 4.40 0.0 0 1 242.83 349.34
  L 240.80 349.34
  A 0.30 0.30 0.0 0 1 240.50 349.04
  L 240.50 319.74
  Z"
/>
<path fill="#292b28" d="
  M 573.66 357.20
  C 572.54 357.99 570.45 357.87 569.18 357.46
  Q 568.56 357.26 568.62 356.60
  L 571.52 325.23
  A 0.33 0.33 0.0 0 1 572.18 325.23
  Q 573.69 339.07 574.19 353.08
  C 574.23 354.06 573.86 355.18 574.03 356.34
  A 0.90 0.89 -22.1 0 1 573.66 357.20
  Z"
/>
<path fill="#003a68" d="
  M 352.27 352.18
  A 0.44 0.44 0.0 0 1 352.71 351.73
  L 354.74 351.72
  A 5.01 4.89 -0.4 0 1 359.79 356.57
  L 359.91 375.01
  A 5.01 4.89 -0.4 0 1 354.94 379.94
  L 352.91 379.95
  A 0.44 0.44 0.0 0 1 352.47 379.52
  L 352.27 352.18
  Z"
/>
<path fill="#292b28" d="
  M 605.87 353.60
  A 1.18 1.18 0.0 0 1 607.06 352.42
  L 608.02 352.42
  A 5.42 5.06 -89.8 0 1 613.06 357.86
  L 613.00 374.82
  A 5.42 5.06 -89.8 0 1 607.92 380.22
  L 606.96 380.22
  A 1.18 1.18 0.0 0 1 605.79 379.04
  L 605.87 353.60
  Z"
/>
<path fill="#e4ffff" d="
  M 185.46 409.87
  C 186.89 407.19 190.12 401.74 193.40 403.85
  Q 193.89 404.17 193.54 404.64
  L 188.21 411.92
  A 1.61 1.60 -45.5 0 0 188.22 413.84
  L 193.57 420.99
  Q 194.23 421.88 193.32 422.52
  C 190.34 424.63 186.17 417.78 185.08 415.79
  Q 184.79 415.26 184.39 415.70
  C 182.09 418.20 179.55 423.13 175.75 422.74
  A 0.84 0.83 21.0 0 1 175.16 421.42
  L 181.15 413.20
  A 1.19 1.17 -47.3 0 0 181.10 411.75
  L 176.23 406.00
  Q 175.24 404.83 176.55 404.02
  C 179.81 402.01 182.48 408.37 184.64 410.04
  Q 185.15 410.44 185.46 409.87
  Z"
/>
<path fill="#e4ffff" d="
  M 632.68 417.57
  Q 630.39 413.87 632.12 410.02
  C 634.74 404.20 641.97 402.67 647.87 403.65
  Q 648.38 403.74 648.44 404.25
  L 648.77 407.23
  Q 648.86 408.04 648.11 407.72
  C 635.74 402.44 629.27 421.86 647.86 419.22
  A 0.56 0.56 0.0 0 1 648.50 419.77
  L 648.50 421.73
  Q 648.50 422.20 648.04 422.32
  C 642.37 423.76 635.92 422.83 632.68 417.57
  Z"
/>
<path fill="#e4ffff" d="
  M 25.67 420.89
  L 32.98 405.36
  A 3.53 3.53 0.0 0 1 39.36 405.33
  L 46.87 420.89
  A 1.23 1.22 75.6 0 1 45.83 422.65
  L 43.11 422.79
  A 0.76 0.76 0.0 0 1 42.37 422.33
  L 40.90 419.01
  A 0.84 0.83 78.0 0 0 40.14 418.51
  L 32.24 418.50
  A 0.80 0.78 9.2 0 0 31.49 419.03
  Q 30.33 422.48 26.72 422.52
  A 1.14 1.14 0.0 0 1 25.67 420.89
  Z
  M 34.80 415.39
  L 38.31 415.36
  Q 39.19 415.35 39.08 414.48
  Q 38.64 410.96 35.74 409.00
  Q 35.16 408.61 34.95 409.28
  L 33.57 413.75
  A 1.27 1.27 0.0 0 0 34.80 415.39
  Z"
/>
<path fill="#e4ffff" d="
  M 83.21 407.40
  L 78.00 407.18
  A 0.79 0.79 0.0 0 1 77.25 406.39
  L 77.26 404.60
  A 0.79 0.79 0.0 0 1 78.03 403.82
  L 94.17 403.44
  A 0.79 0.79 0.0 0 1 94.95 404.43
  L 94.30 406.98
  A 0.79 0.79 0.0 0 1 93.39 407.57
  L 89.44 406.83
  A 0.79 0.79 0.0 0 0 88.51 407.61
  L 88.50 421.74
  A 0.79 0.79 0.0 0 1 87.74 422.53
  L 84.90 422.65
  A 0.79 0.79 0.0 0 1 84.07 421.87
  L 83.97 408.18
  A 0.79 0.79 0.0 0 0 83.21 407.40
  Z"
/>
<path fill="#e4ffff" d="
  M 123.2196 413.1136
  A 11.05 9.81 -0.5 0 1 112.2556 423.0196
  A 11.05 9.81 -0.5 0 1 101.1204 413.3064
  A 11.05 9.81 -0.5 0 1 112.0844 403.4004
  A 11.05 9.81 -0.5 0 1 123.2196 413.1136
  Z
  M 111.8640 420.1449
  A 6.93 6.37 92.2 0 0 118.4953 413.4645
  A 6.93 6.37 92.2 0 0 112.3960 406.2951
  A 6.93 6.37 92.2 0 0 105.7647 412.9755
  A 6.93 6.37 92.2 0 0 111.8640 420.1449
  Z"
/>
<path fill="#e4ffff" d="
  M 136.33 410.00
  C 136.52 406.42 132.46 407.21 130.30 407.23
  Q 129.61 407.24 129.61 406.55
  L 129.57 404.15
  Q 129.56 403.55 130.16 403.56
  L 145.93 403.66
  Q 146.45 403.66 146.47 404.18
  L 146.59 406.91
  Q 146.62 407.49 146.03 407.50
  L 140.87 407.51
  A 0.67 0.66 89.6 0 0 140.21 408.19
  L 140.56 421.66
  A 0.73 0.73 0.0 0 1 139.85 422.41
  L 136.68 422.52
  Q 136.10 422.54 136.09 421.96
  Q 136.00 415.98 136.33 410.00
  Z"
/>
<path fill="#e4ffff" d="
  M 216.25 410.42
  L 216.25 404.39
  A 0.70 0.70 0.0 0 1 216.94 403.69
  L 219.71 403.67
  A 0.70 0.70 0.0 0 1 220.41 404.36
  L 220.75 421.52
  A 0.70 0.70 0.0 0 1 220.11 422.23
  L 216.62 422.56
  A 0.70 0.70 0.0 0 1 215.86 421.81
  L 216.33 415.75
  A 0.70 0.70 0.0 0 0 215.63 415.00
  L 207.46 415.00
  A 0.70 0.70 0.0 0 0 206.76 415.70
  L 206.74 421.72
  A 0.70 0.70 0.0 0 1 206.11 422.42
  L 203.02 422.74
  A 0.70 0.70 0.0 0 1 202.25 422.04
  L 202.25 404.47
  A 0.70 0.70 0.0 0 1 202.95 403.77
  L 206.23 403.74
  A 0.70 0.70 0.0 0 1 206.94 404.47
  L 206.77 410.22
  A 0.70 0.70 0.0 0 0 207.46 410.94
  L 215.54 411.11
  A 0.70 0.70 0.0 0 0 216.25 410.42
  Z"
/>
<path fill="#e4ffff" d="
  M 243.77 410.47
  Q 242.33 410.90 241.81 411.82
  Q 238.89 417.08 235.40 422.03
  Q 235.09 422.47 234.55 422.51
  L 230.44 422.83
  A 1.14 1.13 -1.9 0 1 229.22 421.69
  L 229.38 404.38
  Q 229.38 403.88 229.88 403.83
  L 233.22 403.49
  A 0.50 0.49 85.7 0 1 233.77 403.97
  L 234.21 415.50
  A 0.59 0.59 0.0 0 0 235.29 415.80
  L 242.74 404.48
  Q 243.06 403.99 243.65 403.91
  L 247.40 403.41
  Q 248.12 403.31 248.30 404.02
  C 249.56 409.02 248.75 416.57 248.76 421.85
  Q 248.76 422.49 248.12 422.53
  L 244.72 422.76
  Q 243.94 422.81 243.95 422.03
  L 244.11 410.73
  Q 244.11 410.37 243.77 410.47
  Z"
/>
<path fill="#e4ffff" d="
  M 263.01 410.99
  C 265.45 408.76 270.52 402.06 274.19 403.86
  A 0.60 0.60 0.0 0 1 274.34 404.84
  L 267.03 411.81
  Q 266.63 412.19 266.95 412.63
  C 269.70 416.38 272.41 418.46 275.28 421.17
  A 0.49 0.49 0.0 0 1 275.19 421.95
  C 270.01 424.95 266.95 418.16 263.73 415.31
  A 1.21 1.21 0.0 0 0 261.73 416.28
  L 262.03 421.99
  A 0.71 0.70 89.6 0 1 261.30 422.74
  L 258.18 422.64
  Q 257.50 422.62 257.50 421.93
  L 257.50 404.23
  Q 257.50 403.71 258.02 403.73
  L 261.21 403.80
  A 0.61 0.61 0.0 0 1 261.81 404.38
  L 262.20 410.67
  A 0.48 0.48 0.0 0 0 263.01 410.99
  Z"
/>
<path fill="#e4ffff" d="
  M 337.11 420.15
  C 332.32 415.84 332.99 409.39 338.23 405.86
  Q 343.37 402.39 350.30 403.77
  Q 350.86 403.88 350.94 404.45
  L 351.25 406.65
  A 0.56 0.55 1.5 0 1 350.59 407.27
  C 334.87 404.20 335.12 422.96 350.34 419.00
  Q 351.00 418.83 351.00 419.51
  L 351.00 421.95
  Q 351.00 422.37 350.59 422.44
  C 346.44 423.11 340.33 423.05 337.11 420.15
  Z"
/>
<path fill="#e4ffff" d="
  M 419.54 417.16
  C 419.29 424.27 409.46 422.32 404.80 422.52
  Q 404.14 422.54 404.14 421.88
  L 404.16 404.34
  Q 404.16 403.72 404.78 403.68
  C 409.65 403.38 418.61 402.58 418.80 409.35
  A 1.04 1.03 -24.4 0 1 418.52 410.08
  L 416.91 411.73
  A 0.63 0.63 0.0 0 0 416.90 412.60
  C 418.18 413.96 419.61 415.17 419.54 417.16
  Z
  M 408.85 407.55
  L 408.70 410.19
  A 0.93 0.93 0.0 0 0 409.58 411.17
  L 409.74 411.18
  A 4.39 1.99 3.1 0 0 414.23 409.43
  L 414.26 408.91
  A 4.39 1.99 3.1 0 0 409.98 406.68
  L 409.82 406.68
  A 0.93 0.93 0.0 0 0 408.85 407.55
  Z
  M 408.84 415.82
  L 408.84 418.40
  A 1.08 1.08 0.0 0 0 409.92 419.49
  L 410.52 419.49
  A 4.70 2.22 0.1 0 0 415.22 417.28
  L 415.22 416.98
  A 4.70 2.22 0.1 0 0 410.52 414.75
  L 409.92 414.75
  A 1.08 1.08 0.0 0 0 408.84 415.82
  Z"
/>
<path fill="#e4ffff" d="
  M 443.50 410.56
  A 0.51 0.51 0.0 0 0 442.59 410.23
  Q 439.24 414.36 436.49 418.90
  C 434.63 421.98 432.82 423.58 429.26 422.47
  Q 428.75 422.32 428.75 421.79
  Q 428.75 414.10 428.75 406.48
  C 428.74 403.58 430.17 402.39 432.83 404.09
  Q 433.16 404.30 433.15 404.68
  L 432.83 416.05
  A 0.73 0.73 0.0 0 0 434.18 416.45
  Q 437.67 410.61 441.45 405.44
  C 443.04 403.27 445.18 402.90 447.43 404.14
  Q 447.90 404.40 447.89 404.94
  L 447.71 421.71
  Q 447.70 422.36 447.05 422.40
  L 444.77 422.53
  A 1.28 1.27 -1.5 0 1 443.42 421.25
  L 443.50 410.56
  Z"
/>
<path fill="#e4ffff" d="
  M 458.44 419.31
  C 455.33 416.65 455.80 411.07 457.56 408.39
  C 460.54 403.85 467.30 402.89 472.44 403.76
  Q 473.03 403.86 473.14 404.46
  L 473.48 406.38
  Q 473.60 407.06 472.91 407.03
  C 468.61 406.84 462.61 406.20 461.14 411.56
  C 459.11 418.92 466.82 421.00 472.23 418.97
  A 0.57 0.57 0.0 0 1 473.00 419.51
  L 473.00 421.44
  Q 473.00 422.01 472.45 422.17
  Q 464.53 424.53 458.44 419.31
  Z"
/>
<path fill="#e4ffff" d="
  M 556.34 407.50
  L 556.03 421.81
  A 0.76 0.76 0.0 0 1 555.33 422.55
  L 552.32 422.79
  A 0.76 0.76 0.0 0 1 551.50 422.04
  L 551.50 404.34
  A 0.76 0.76 0.0 0 1 552.27 403.58
  L 568.25 403.69
  A 0.76 0.76 0.0 0 1 569.00 404.45
  L 569.00 421.66
  A 0.76 0.76 0.0 0 1 568.25 422.42
  L 565.52 422.48
  A 0.76 0.76 0.0 0 1 564.75 421.72
  L 564.75 407.86
  A 0.76 0.76 0.0 0 0 564.03 407.10
  L 557.14 406.76
  A 0.76 0.76 0.0 0 0 556.34 407.50
  Z"
/>
<path fill="#e4ffff" d="
  M 660.73 407.33
  L 655.71 407.20
  A 0.79 0.79 0.0 0 1 654.94 406.34
  L 655.11 404.55
  A 0.79 0.79 0.0 0 1 655.88 403.84
  L 671.80 403.50
  A 0.79 0.79 0.0 0 1 672.60 404.35
  L 672.43 406.58
  A 0.79 0.79 0.0 0 1 671.58 407.30
  L 667.08 406.93
  A 0.79 0.79 0.0 0 0 666.22 407.70
  L 665.96 421.93
  A 0.79 0.79 0.0 0 1 665.19 422.71
  L 662.31 422.76
  A 0.79 0.79 0.0 0 1 661.50 421.97
  L 661.50 408.12
  A 0.79 0.79 0.0 0 0 660.73 407.33
  Z"
/>
<path fill="#e4ffff" d="
  M 694.50 411.76
  Q 694.50 408.09 692.64 411.25
  C 689.94 415.82 686.31 424.43 680.04 422.53
  Q 679.45 422.35 679.45 421.72
  L 679.61 404.17
  Q 679.62 403.45 680.33 403.48
  L 683.07 403.56
  Q 683.97 403.59 683.99 404.49
  L 684.15 416.35
  A 0.49 0.49 0.0 0 0 685.04 416.62
  Q 688.44 411.59 691.89 406.43
  C 693.42 404.15 694.84 403.27 697.52 403.50
  A 1.35 1.34 2.6 0 1 698.75 404.84
  L 698.75 421.75
  Q 698.75 422.33 698.20 422.54
  Q 696.47 423.17 694.85 422.30
  Q 694.50 422.11 694.50 421.72
  L 694.50 411.76
  Z"
/>
<path fill="#e4ffff" d="
  M 55.00 422.31
  A 0.30 0.29 4.6 0 1 54.75 422.02
  L 54.75 404.77
  Q 54.75 404.23 55.28 404.15
  C 59.08 403.60 69.72 402.47 69.33 408.69
  Q 69.21 410.64 67.78 412.10
  A 0.69 0.68 45.3 0 0 67.78 413.05
  L 70.60 416.04
  A 1.06 1.02 28.0 0 1 70.88 416.90
  C 70.01 423.86 59.93 423.12 55.00 422.31
  Z
  M 59.25 407.85
  L 59.25 410.43
  A 1.08 1.08 0.0 0 0 60.34 411.51
  L 60.90 411.50
  A 4.10 2.18 -0.2 0 0 64.99 409.31
  L 64.99 408.93
  A 4.10 2.18 -0.2 0 0 60.88 406.76
  L 60.32 406.77
  A 1.08 1.08 0.0 0 0 59.25 407.85
  Z
  M 59.25 415.83
  L 59.25 418.49
  A 0.93 0.93 0.0 0 0 60.17 419.42
  L 61.70 419.43
  A 4.52 2.11 0.2 0 0 66.23 417.33
  L 66.23 417.03
  A 4.52 2.11 0.2 0 0 61.72 414.91
  L 60.19 414.90
  A 0.93 0.93 0.0 0 0 59.25 415.83
  Z"
/>
<path fill="#e4ffff" d="
  M 159.73 419.22
  L 166.32 419.31
  A 0.82 0.81 87.6 0 1 167.12 420.05
  L 167.31 422.02
  Q 167.37 422.67 166.72 422.67
  L 154.71 422.68
  Q 154.05 422.68 154.05 422.02
  L 154.16 404.29
  Q 154.17 403.75 154.71 403.75
  L 166.66 403.75
  Q 167.40 403.75 167.30 404.49
  L 167.02 406.60
  A 0.74 0.73 -86.5 0 1 166.29 407.25
  L 159.43 407.25
  A 0.76 0.75 1.2 0 0 158.67 407.97
  L 158.53 410.79
  Q 158.49 411.61 159.31 411.56
  L 165.19 411.19
  Q 165.61 411.17 165.84 411.53
  Q 166.58 412.71 166.16 414.08
  Q 166.00 414.62 165.44 414.65
  L 159.06 415.00
  A 0.75 0.75 0.0 0 0 158.37 415.91
  L 158.96 418.59
  Q 159.09 419.21 159.73 419.22
  Z"
/>
<path fill="#e4ffff" d="
  M 299.44 422.42
  C 298.21 416.88 292.63 418.44 288.47 418.52
  Q 287.92 418.53 287.68 419.03
  L 286.21 422.14
  Q 285.93 422.72 285.29 422.73
  L 283.56 422.76
  A 1.36 1.35 12.1 0 1 282.31 420.84
  L 289.48 405.50
  A 3.72 3.71 45.1 0 1 296.21 405.51
  L 303.69 421.56
  Q 304.08 422.40 303.17 422.52
  L 300.19 422.94
  Q 299.58 423.03 299.44 422.42
  Z
  M 289.86 414.76
  A 0.35 0.35 0.0 0 0 290.19 415.25
  L 295.33 415.25
  A 0.35 0.35 0.0 0 0 295.66 414.76
  L 293.08 408.77
  A 0.35 0.35 0.0 0 0 292.44 408.77
  L 289.86 414.76
  Z"
/>
<path fill="#e4ffff" d="
  M 363.95 408.13
  L 364.15 410.57
  A 0.74 0.74 0.0 0 0 364.89 411.25
  L 370.76 411.25
  A 0.74 0.74 0.0 0 1 371.50 411.99
  L 371.50 413.95
  A 0.74 0.74 0.0 0 1 370.80 414.69
  L 364.59 415.03
  A 0.74 0.74 0.0 0 0 363.90 415.90
  L 364.37 418.64
  A 0.74 0.74 0.0 0 0 365.10 419.25
  L 371.54 419.25
  A 0.74 0.74 0.0 0 1 372.26 419.81
  L 372.75 421.75
  A 0.74 0.74 0.0 0 1 372.03 422.67
  L 359.94 422.59
  A 0.74 0.74 0.0 0 1 359.21 421.84
  L 359.43 404.48
  A 0.74 0.74 0.0 0 1 360.17 403.75
  L 371.76 403.75
  A 0.74 0.74 0.0 0 1 372.50 404.49
  L 372.50 406.44
  A 0.74 0.74 0.0 0 1 371.78 407.18
  L 364.67 407.32
  A 0.74 0.74 0.0 0 0 363.95 408.13
  Z"
/>
<path fill="#e4ffff" d="
  M 381.85 422.63
  A 0.55 0.55 0.0 0 1 381.25 422.08
  L 381.25 404.50
  Q 381.25 403.91 381.84 403.86
  C 386.14 403.52 389.94 403.36 393.21 405.08
  C 396.86 407.00 397.36 411.27 394.08 413.83
  C 391.94 415.51 388.92 415.54 386.18 415.77
  Q 385.65 415.82 385.63 416.34
  L 385.43 421.74
  A 0.69 0.68 -1.4 0 1 384.80 422.40
  L 381.85 422.63
  Z
  M 391.01 408.13
  L 387.51 406.66
  A 1.12 1.12 0.0 0 0 386.04 407.26
  L 385.97 407.44
  A 4.52 3.00 -67.2 0 0 386.98 412.77
  L 387.02 412.79
  A 4.52 3.00 -67.2 0 0 391.53 409.79
  L 391.61 409.60
  A 1.12 1.12 0.0 0 0 391.01 408.13
  Z"
/>
<path fill="#e4ffff" d="
  M 511.64 412.52
  C 514.27 414.95 516.46 419.74 511.74 421.49
  Q 506.09 423.59 499.97 422.28
  Q 499.49 422.18 499.49 421.69
  L 499.52 418.86
  A 0.40 0.40 0.0 0 1 500.11 418.51
  C 502.94 420.09 511.33 421.34 509.13 415.67
  Q 508.97 415.27 508.55 415.19
  L 502.97 414.13
  A 1.43 1.43 0.0 0 1 503.06 411.31
  L 507.81 410.73
  A 1.74 1.74 0.0 0 0 508.17 407.36
  Q 504.43 406.07 500.70 407.35
  Q 500.21 407.52 499.98 407.06
  Q 498.70 404.48 501.04 403.92
  Q 506.29 402.67 512.00 405.00
  Q 512.40 405.17 512.63 405.53
  Q 515.07 409.26 511.68 411.78
  Q 511.21 412.13 511.64 412.52
  Z"
/>
<path fill="#e4ffff" d="
  M 538.86 421.65
  C 538.05 417.34 531.69 418.44 528.44 418.53
  Q 527.89 418.54 527.64 419.03
  L 526.07 421.99
  A 1.24 1.23 4.0 0 1 525.42 422.55
  Q 523.80 423.13 522.28 422.45
  A 0.68 0.67 -65.3 0 1 521.95 421.55
  L 529.35 405.54
  A 3.71 3.71 0.0 0 1 536.07 405.51
  L 543.39 420.98
  Q 543.99 422.24 542.68 422.73
  Q 541.00 423.37 539.49 422.52
  A 1.28 1.26 9.4 0 1 538.86 421.65
  Z
  M 529.68 414.31
  A 0.73 0.73 0.0 0 0 530.33 415.34
  L 534.79 415.43
  A 0.73 0.73 0.0 0 0 535.48 414.43
  L 533.35 409.16
  A 0.73 0.73 0.0 0 0 532.01 409.13
  L 529.68 414.31
  Z"
/>
<path fill="#e4ffff" d="
  M 590.59 412.64
  L 590.82 404.29
  Q 590.84 403.59 591.54 403.68
  L 594.50 404.06
  Q 595.07 404.14 595.07 404.72
  L 594.97 421.24
  A 1.33 1.32 3.5 0 1 593.49 422.54
  L 591.35 422.29
  Q 590.75 422.21 590.75 421.61
  L 590.75 417.02
  A 0.49 0.49 0.0 0 0 590.26 416.53
  C 582.19 416.48 576.91 416.58 577.43 406.41
  C 577.56 403.80 579.02 402.81 581.39 404.10
  A 0.87 0.85 -78.3 0 1 581.83 404.78
  Q 582.01 406.96 581.71 409.75
  C 581.28 413.69 587.08 413.41 590.13 413.14
  Q 590.58 413.09 590.59 412.64
  Z"
/>
<path fill="#e4ffff" d="
  M 603.05 422.29
  Q 602.74 422.19 602.87 421.90
  Q 606.06 414.40 609.74 406.97
  C 611.17 404.09 612.81 402.92 615.98 404.05
  A 0.92 0.91 87.4 0 1 616.49 404.52
  L 624.36 421.03
  Q 624.94 422.25 623.64 422.62
  C 620.06 423.63 619.95 421.18 618.27 418.91
  A 0.90 0.88 -16.8 0 0 617.60 418.56
  L 609.69 418.36
  A 0.94 0.94 0.0 0 0 608.93 418.72
  C 607.10 421.16 607.27 423.59 603.05 422.29
  Z
  M 611.47 415.13
  C 612.84 415.50 614.74 415.89 615.93 414.96
  A 0.92 0.91 -25.3 0 0 616.27 414.03
  Q 615.60 410.95 613.10 408.99
  Q 612.47 408.48 612.28 409.27
  L 611.08 414.49
  Q 610.96 414.99 611.47 415.13
  Z"
/>
<ellipse fill="#003a68" cx="0.00" cy="0.00" transform="translate(112.13,413.22) rotate(92.2)" rx="6.93" ry="6.37"/>
<path fill="#003a68" d="
  M 59.25 407.85
  A 1.08 1.08 0.0 0 1 60.32 406.77
  L 60.88 406.76
  A 4.10 2.18 -0.2 0 1 64.99 408.93
  L 64.99 409.31
  A 4.10 2.18 -0.2 0 1 60.90 411.50
  L 60.34 411.51
  A 1.08 1.08 0.0 0 1 59.25 410.43
  L 59.25 407.85
  Z"
/>
<path fill="#15364e" d="
  M 391.01 408.13
  A 1.12 1.12 0.0 0 1 391.61 409.60
  L 391.53 409.79
  A 4.52 3.00 -67.2 0 1 387.02 412.79
  L 386.98 412.77
  A 4.52 3.00 -67.2 0 1 385.97 407.44
  L 386.04 407.26
  A 1.12 1.12 0.0 0 1 387.51 406.66
  L 391.01 408.13
  Z"
/>
<path fill="#15364e" d="
  M 408.85 407.55
  A 0.93 0.93 0.0 0 1 409.82 406.68
  L 409.98 406.68
  A 4.39 1.99 3.1 0 1 414.26 408.91
  L 414.23 409.43
  A 4.39 1.99 3.1 0 1 409.74 411.18
  L 409.58 411.17
  A 0.93 0.93 0.0 0 1 408.70 410.19
  L 408.85 407.55
  Z"
/>
<path fill="#15364e" d="
  M 289.86 414.76
  L 292.44 408.77
  A 0.35 0.35 0.0 0 1 293.08 408.77
  L 295.66 414.76
  A 0.35 0.35 0.0 0 1 295.33 415.25
  L 290.19 415.25
  A 0.35 0.35 0.0 0 1 289.86 414.76
  Z"
/>
<ellipse fill="#d7843b" cx="0.00" cy="0.00" transform="translate(315.60,413.15) rotate(5.3)" rx="5.45" ry="4.57"/>
<ellipse fill="#d7843b" cx="0.00" cy="0.00" transform="translate(486.92,413.28) rotate(-2.3)" rx="5.29" ry="4.69"/>
<path fill="#003a68" d="
  M 529.68 414.31
  L 532.01 409.13
  A 0.73 0.73 0.0 0 1 533.35 409.16
  L 535.48 414.43
  A 0.73 0.73 0.0 0 1 534.79 415.43
  L 530.33 415.34
  A 0.73 0.73 0.0 0 1 529.68 414.31
  Z"
/>
<path fill="#003a68" d="
  M 34.80 415.39
  A 1.27 1.27 0.0 0 1 33.57 413.75
  L 34.95 409.28
  Q 35.16 408.61 35.74 409.00
  Q 38.64 410.96 39.08 414.48
  Q 39.19 415.35 38.31 415.36
  L 34.80 415.39
  Z"
/>
<path fill="#15364e" d="
  M 615.93 414.96
  C 614.74 415.89 612.84 415.50 611.47 415.13
  Q 610.96 414.99 611.08 414.49
  L 612.28 409.27
  Q 612.47 408.48 613.10 408.99
  Q 615.60 410.95 616.27 414.03
  A 0.92 0.91 -25.3 0 1 615.93 414.96
  Z"
/>
<path fill="#15364e" d="
  M 408.84 415.82
  A 1.08 1.08 0.0 0 1 409.92 414.75
  L 410.52 414.75
  A 4.70 2.22 0.1 0 1 415.22 416.98
  L 415.22 417.28
  A 4.70 2.22 0.1 0 1 410.52 419.49
  L 409.92 419.49
  A 1.08 1.08 0.0 0 1 408.84 418.40
  L 408.84 415.82
  Z"
/>
<path fill="#15364e" d="
  M 59.25 415.83
  A 0.93 0.93 0.0 0 1 60.19 414.90
  L 61.72 414.91
  A 4.52 2.11 0.2 0 1 66.23 417.03
  L 66.23 417.33
  A 4.52 2.11 0.2 0 1 61.70 419.43
  L 60.17 419.42
  A 0.93 0.93 0.0 0 1 59.25 418.49
  L 59.25 415.83
  Z"
/>
</svg>
